<svg xmlns="http://www.w3.org/2000/svg" width="273.412" height="49.292" viewBox="0 0 273.412 49.292"><defs><style>
                                                                                                           .a {
                                                                                                               fill: #fff;
                                                                                                           }
</style></defs><g transform="translate(-150.938 -151.596)"><path class="a" d="M270.534,212.81c0,1.19,0,5.4,4.248,5.4,2.212,0,3.584-1.151,3.805-3.233h7.746c-.621,5.575-5.843,7.747-11.6,7.747-7.745,0-11.905-3.9-11.905-11.24,0-7.438,3.629-12.262,11.817-12.262,6.2,0,9.073,2.523,10.576,5.666.975,1.9,1.239,4.028,1.239,7.924Zm8.1-4.514c-.088-1.287-.356-4.651-3.983-4.651s-3.938,3.586-4.028,4.651Z" transform="translate(-65.271 -27.781)" /><path class="a" d="M330.175,205.606l-.221-4.736h8.1l.133,4.6c1.9-4.957,5.929-4.824,7.834-4.779v7.128a17.062,17.062,0,0,0-1.771-.133c-5.09,0-5.8,3.582-5.8,5.974v9.427h-8.274Z" transform="translate(-104.426 -28.634)" /><path class="a" d="M377.386,205.376c0-.536-.176-4.385-.176-5.049h8.231l.088,3.673a7.968,7.968,0,0,1,7.525-4.2c1.284,0,5.532.221,6.992,4.114a8.808,8.808,0,0,1,7.834-4.159,7.873,7.873,0,0,1,6.994,3.453c1.192,1.9,1.192,4.6,1.192,7.171v12.172h-8.319V209.976c0-2.255,0-4.913-3.32-4.913a3.283,3.283,0,0,0-3.1,1.86,6.79,6.79,0,0,0-.443,3.143v12.481h-8.319V209.886c0-1.992,0-4.823-3.32-4.823-2.832,0-3.539,2.345-3.539,4.823v12.661h-8.321Z" transform="translate(-131.992 -28.09)" /><path class="a" d="M493.977,199.328c7.213,0,12.831,3.629,12.831,11.509a12.291,12.291,0,0,1-3.232,8.8c-1.854,1.817-4.6,3.19-9.157,3.19-4.911,0-8.1-1.2-10.271-3.277a11.352,11.352,0,0,1-3.187-8.452C480.962,204.283,485.168,199.328,493.977,199.328Zm-3.32,17.084a3.442,3.442,0,0,0,3.23,1.773c3.629,0,4.335-3.943,4.335-7.043,0-3.848-.93-7.08-4.245-7.08-3.674,0-4.385,3.764-4.385,7.08A11.132,11.132,0,0,0,490.657,216.412Z" transform="translate(-192.514 -27.844)" /><path class="a" d="M553.146,205.376c0-.536-.18-4.385-.18-5.049H561.2l.09,3.673a7.968,7.968,0,0,1,7.52-4.2c1.288,0,5.534.221,7,4.114a8.8,8.8,0,0,1,7.83-4.159,7.865,7.865,0,0,1,6.994,3.453c1.192,1.9,1.192,4.6,1.192,7.171v12.172h-8.315V209.976c0-2.255,0-4.913-3.322-4.913a3.28,3.28,0,0,0-3.1,1.86,6.792,6.792,0,0,0-.442,3.143v12.481h-8.317V209.886c0-1.992,0-4.823-3.322-4.823-2.832,0-3.539,2.345-3.539,4.823v12.661h-8.321Z" transform="translate(-234.516 -28.09)" /><path class="a" d="M690.427,201.132h9.693l2.834,6.819,2.964-6.819h8.495l-6.816,10.62,7.527,11.6H705.3l-3.5-8.237-3.674,8.237h-8.585l7.481-11.6Z" transform="translate(-314.186 -28.896)" /><path class="a" d="M150.94,205.149c0,4.295,1.327,6.506,7.967,6.506a30.242,30.242,0,0,0,5.4-.395v-5.223a13.346,13.346,0,0,1-2.08.129c-3.187,0-3.187-1.237-3.232-3.982v-7.7h5.356v-5.31h-5.356v-8.7l-8.055,3.187Z" transform="translate(0 -16.844)" /><path class="a" d="M210.851,209.824h8.26v-12.9c0-3.089,0-5.522-2.208-7.506a8.816,8.816,0,0,0-6.183-2.253,9.124,9.124,0,0,0-6.935,2.915l-.008-2.952c0-5.1-1.68-8.4-8.384-9.194v31.89H203.7V199.8a23.033,23.033,0,0,1,.219-4.287,3.518,3.518,0,0,1,3.49-3.093c3.443,0,3.443,3.621,3.443,5.481Z" transform="translate(-25.932 -15.364)" /><g transform="translate(356.503 151.596)"><path class="a" d="M666.885,205.534a9.189,9.189,0,0,1-6.62-2.7v21.515h8.3V205.4C668.537,205.4,667.4,205.534,666.885,205.534Z" transform="translate(-653.611 -181.484)" /><path class="a" d="M657.659,164.962l1.045-.376c4.23-1.529,6.049-3.9,5.561-7.239a9.077,9.077,0,0,0-.485-1.867c-1.184,1.308-6.115,2.807-6.115,2.807h0v-.006l-.378-1.047c-1.531-4.228-3.9-6.049-7.245-5.561a9,9,0,0,0-1.863.488c1.307,1.18,2.8,6.117,2.8,6.117h0l-1.049.376c-4.226,1.53-6.045,3.9-5.557,7.243a8.7,8.7,0,0,0,.487,1.863c1.176-1.31,6.113-2.8,6.113-2.8h.006l.372,1.045c1.533,4.23,3.9,6.048,7.244,5.563a9.132,9.132,0,0,0,1.864-.49c-1.307-1.18-2.8-6.117-2.8-6.117v0Z" transform="translate(-644.295 -151.596)" /></g></g></svg>