<svg xmlns="http://www.w3.org/2000/svg" xmlns:xlink="http://www.w3.org/1999/xlink" width="303.538" height="141.003" viewBox="0 0 303.538 141.003">
  <defs>
    <clipPath id="clip-path">
      <rect id="Rectángulo_1750" data-name="Rectángulo 1750" width="300" height="137.502" fill="none"/>
    </clipPath>
    <clipPath id="clip-path-3">
      <rect id="Rectángulo_1746" data-name="Rectángulo 1746" width="23.785" height="23.786" fill="none"/>
    </clipPath>
    <clipPath id="clip-path-5">
      <rect id="Rectángulo_1748" data-name="Rectángulo 1748" width="23.786" height="23.786" fill="none"/>
    </clipPath>
  </defs>
  <g id="logoPremia" transform="translate(12879 -2334)">
    <g id="Unión_1" data-name="Unión 1" transform="translate(-12877 2336)" fill="#fff" stroke-linecap="round" stroke-linejoin="round">
      <path d="M 84.26618957519531 33.45321273803711 C 81.03379821777344 33.45321273803711 78.60618591308594 32.47935104370117 77.05079650878906 30.55871200561523 C 75.52485656738281 28.67573928833008 74.78296661376953 25.53826713562012 74.78296661376953 20.96729469299316 C 74.78296661376953 16.11646270751953 75.55504608154297 12.8834342956543 77.14335632324219 11.08346176147461 C 78.74118804931641 9.27154541015625 81.25490570068359 8.35271167755127 84.61451721191406 8.35271167755127 C 88.13393402099609 8.35271167755127 90.72805023193359 9.212017059326172 92.32474517822266 10.90676689147949 C 93.92799377441406 12.61065578460693 94.70713043212891 15.73085021972656 94.70713043212891 20.4461555480957 C 94.70713043212891 25.73110008239746 93.86415863037109 29.14260101318359 92.13005065917969 30.87565612792969 C 90.4197998046875 32.58590698242188 87.77393341064453 33.45321273803711 84.26618957519531 33.45321273803711 Z M 84.78823852539062 14.22393417358398 C 84.13430023193359 14.22393417358398 83.73899078369141 14.43393421173096 83.46640777587891 14.92615604400635 C 83.26123809814453 15.29673957824707 82.9169921875 16.3426570892334 82.9169921875 19.18332290649414 L 82.9169921875 20.83768463134766 C 82.9169921875 24.3467960357666 83.16468811035156 25.87673950195312 83.37246704101562 26.54226684570312 C 83.54221343994141 27.0884895324707 83.83304595947266 27.45146179199219 84.70182800292969 27.45146179199219 C 85.39390563964844 27.45146179199219 85.77382659912109 27.20554542541504 86.01318359375 26.60268402099609 C 86.24832153320312 26.0090446472168 86.52896118164062 24.7147388458252 86.52896118164062 21.924072265625 L 86.52896118164062 19.35796165466309 C 86.52896118164062 17.38129425048828 86.38382720947266 15.92487812042236 86.09760284423828 15.02921199798584 C 85.94346618652344 14.54554462432861 85.66196441650391 14.22393417358398 84.78823852539062 14.22393417358398 Z M 207.2942657470703 33.27949142456055 C 205.0833587646484 33.27949142456055 203.3490753173828 32.56132125854492 202.1396026611328 31.14490699768066 C 200.9701080322266 29.77526664733887 200.3771362304688 27.85912895202637 200.3771362304688 25.44971084594727 C 200.3771362304688 22.67609977722168 201.1514892578125 20.55523872375488 202.6786651611328 19.1459903717041 C 203.7113647460938 18.19249153137207 205.2986297607422 17.57080841064453 207.4887847900391 17.26887893676758 L 201.9000701904297 17.26887893676758 L 200.9000701904297 17.26887893676758 L 200.9000701904297 16.26887893676758 L 200.9000701904297 15.96557331085205 C 200.9000701904297 13.2739896774292 201.7877197265625 11.311767578125 203.5383605957031 10.13337802886963 C 205.1665954589844 9.038322448730469 207.4691619873047 8.483211517333984 210.3824157714844 8.483211517333984 C 213.6289367675781 8.483211517333984 215.9196624755859 9.130351066589355 217.3854675292969 10.46165657043457 C 218.8585968017578 11.79954528808594 219.6055755615234 13.82668399810791 219.6055755615234 16.4867115020752 L 219.6055755615234 27.04829406738281 C 219.6321411132812 28.24713516235352 219.6743621826172 29.17141151428223 219.7310791015625 29.79574012756348 C 219.7889099121094 30.43276786804199 219.8611907958984 31.09399032592773 219.9459075927734 31.76104545593262 L 220.0889434814453 32.88704681396484 L 218.9538879394531 32.88704681396484 L 213.2545776367188 32.88704681396484 L 212.3189392089844 32.88704681396484 L 212.2567901611328 31.95346260070801 C 212.2460632324219 31.79222297668457 212.2339935302734 31.62883949279785 212.2205963134766 31.46333122253418 C 211.8582305908203 31.79186248779297 211.4713897705078 32.0766487121582 211.0615234375 32.31621170043945 C 209.9679870605469 32.95540618896484 208.7004852294922 33.27949142456055 207.2942657470703 33.27949142456055 Z M 211.8189392089844 22.2813606262207 C 210.6354827880859 22.31889152526855 209.7203521728516 22.48814010620117 209.0939025878906 22.78587913513184 C 208.5049438476562 23.06484985351562 208.3815765380859 24.12798881530762 208.3815765380859 24.97084999084473 C 208.3815765380859 26.76337814331055 208.7049713134766 27.18390655517578 208.7418518066406 27.22596168518066 C 208.8873291015625 27.39249038696289 209.1199951171875 27.58198928833008 209.6434631347656 27.58198928833008 C 210.3432159423828 27.58198928833008 210.8134155273438 27.330322265625 211.1680450439453 26.76596260070801 C 211.4644927978516 26.29246139526367 211.8189392089844 25.25568389892578 211.8189392089844 23.01318359375 L 211.8189392089844 22.2813606262207 Z M 210.1654968261719 13.83329486846924 C 209.4724884033203 13.83329486846924 209.2157745361328 14.05985069274902 209.0829315185547 14.23023986816406 C 208.9356536865234 14.42026710510254 208.6857757568359 14.94096183776855 208.6857757568359 16.26887893676758 L 208.6857757568359 17.14035606384277 C 209.4123992919922 17.08251762390137 210.1949920654297 17.05376815795898 211.0349426269531 17.05376815795898 L 211.6442718505859 17.05376815795898 L 211.6442718505859 15.57312870025635 C 211.6442718505859 14.63987827301025 211.4482727050781 14.26421165466309 211.3314361572266 14.12335109710693 C 211.1781921386719 13.94023990631104 210.7521820068359 13.83329486846924 210.1654968261719 13.83329486846924 Z M 146.8684387207031 33.27949142456055 C 144.6564636230469 33.27949142456055 142.9221038818359 32.56121063232422 141.7134857177734 31.14459991455078 C 140.5444641113281 29.77793312072754 139.9512939453125 27.861572265625 139.9512939453125 25.44971084594727 C 139.9512939453125 22.67751693725586 140.7251892089844 20.55679512023926 142.2514343261719 19.14646148681641 C 143.2852478027344 18.19258689880371 144.8729705810547 17.57082366943359 147.0631713867188 17.26887893676758 L 141.4733276367188 17.26887893676758 L 140.4733276367188 17.26887893676758 L 140.4733276367188 16.26887893676758 L 140.4733276367188 15.96557331085205 C 140.4733276367188 13.27401733398438 141.3609619140625 11.31179523468018 143.111572265625 10.13340663909912 C 144.7387390136719 9.038378715515137 147.0417175292969 8.483211517333984 149.9566040039062 8.483211517333984 C 153.2025146484375 8.483211517333984 155.4929046630859 9.130378723144531 156.9586791992188 10.46165657043457 C 158.4317169189453 11.79840660095215 159.1787719726562 13.82562828063965 159.1787719726562 16.4867115020752 L 159.1787719726562 27.04819488525391 C 159.2054443359375 28.24742317199707 159.2476654052734 29.17179870605469 159.3042755126953 29.79582214355469 C 159.3628845214844 30.43118476867676 159.4352722167969 31.09335136413574 159.5193023681641 31.76240539550781 L 159.6605682373047 32.88704681396484 L 158.527099609375 32.88704681396484 L 152.8278198242188 32.88704681396484 L 151.8912658691406 32.88704681396484 L 151.8299713134766 31.95248985290527 C 151.8195190429688 31.79316520690918 151.8077392578125 31.63172340393066 151.7946319580078 31.46826362609863 C 150.4701232910156 32.67193984985352 148.8214874267578 33.27949142456055 146.8684387207031 33.27949142456055 Z M 151.3930816650391 22.28136253356934 C 150.2096405029297 22.31889343261719 149.2945404052734 22.48814010620117 148.6680755615234 22.78587913513184 C 148.0783538818359 23.06521224975586 147.9548187255859 24.12821197509766 147.9548187255859 24.97084999084473 C 147.9548187255859 26.76337814331055 148.2782135009766 27.18387794494629 148.3151092529297 27.22593307495117 C 148.4605255126953 27.3920726776123 148.69384765625 27.58198928833008 149.2167205810547 27.58198928833008 C 149.9170532226562 27.58198928833008 150.3871002197266 27.33051681518555 150.7407989501953 26.76665687561035 C 151.0383758544922 26.29226684570312 151.3930816650391 25.25604438781738 151.3930816650391 23.01318359375 L 151.3930816650391 22.28136253356934 Z M 149.73876953125 13.83329486846924 C 149.0464019775391 13.83329486846924 148.7889404296875 14.06035041809082 148.6554870605469 14.23112869262695 C 148.5089416503906 14.42023944854736 148.2590484619141 14.94093418121338 148.2590484619141 16.26887893676758 L 148.2590484619141 17.14043998718262 C 148.9860076904297 17.08253479003906 149.768798828125 17.05376815795898 150.6091613769531 17.05376815795898 L 151.2184600830078 17.05376815795898 L 151.2184600830078 15.57312870025635 C 151.2184600830078 14.64643001556396 151.0243377685547 14.2686185836792 150.9069519042969 14.12503433227539 C 150.7482757568359 13.93958377838135 150.3229064941406 13.83329486846924 149.73876953125 13.83329486846924 Z M 26.27690887451172 33.27949142456055 C 24.154296875 33.27949142456055 22.52335357666016 32.63573837280273 21.42938041687012 31.36612892150879 C 20.37365913391113 30.13879585266113 19.83863067626953 28.5139331817627 19.83863067626953 26.53607368469238 L 19.83863067626953 9.917934417724609 L 19.83863067626953 8.917934417724609 L 20.83863067626953 8.917934417724609 L 26.92946434020996 8.917934417724609 L 27.92946434020996 8.917934417724609 L 27.92946434020996 9.917934417724609 L 27.92946434020996 25.01496124267578 C 27.92946434020996 27.40735054016113 28.68796348571777 27.40735054016113 28.97352027893066 27.40735054016113 C 29.38738059997559 27.40735054016113 29.64735221862793 27.26424026489258 29.87079811096191 26.91337776184082 C 30.17054748535156 26.44207382202148 30.32271385192871 25.77348899841309 30.32271385192871 24.92673873901367 L 30.32271385192871 9.917934417724609 L 30.32271385192871 8.917934417724609 L 31.32271385192871 8.917934417724609 L 37.45674133300781 8.917934417724609 L 38.45674133300781 8.917934417724609 L 38.45674133300781 9.917934417724609 L 38.45674133300781 27.35635566711426 C 38.49288558959961 30.45524978637695 38.52327728271484 31.49909591674805 38.54240798950195 31.82918357849121 L 38.60371398925781 32.88704681396484 L 37.54407501220703 32.88704681396484 L 31.58374214172363 32.88704681396484 L 30.61985206604004 32.88704681396484 L 30.5867919921875 31.98857116699219 C 30.32275390625 32.18822479248047 30.04876708984375 32.36272048950195 29.76554679870605 32.51140594482422 C 28.7958812713623 33.02101898193359 27.62201881408691 33.27949142456055 26.27690887451172 33.27949142456055 Z M 62.55721282958984 33.23537826538086 C 59.57421493530273 33.23537826538086 57.22099304199219 32.63973999023438 55.56288146972656 31.46498870849609 C 53.89724349975586 30.28310012817383 52.70365905761719 28.61196136474609 52.01471328735352 26.49754524230957 C 51.35207366943359 24.46565628051758 51.0299072265625 21.10560035705566 51.0299072265625 16.22568321228027 C 51.0299072265625 11.2628231048584 51.34454727172852 7.875489711761475 51.99179840087891 5.870072841644287 C 52.66510391235352 3.790295124053955 53.85360336303711 2.108378410339355 55.52449035644531 0.8702395558357239 C 57.20260238647461 -0.3709549009799957 59.67149353027344 -1.00001049041748 62.86324310302734 -1.00001049041748 C 66.13655090332031 -1.00001049041748 68.67105102539062 -0.1346215754747391 70.39629364013672 1.572100639343262 C 72.12357330322266 3.283878326416016 72.99907684326172 5.930822849273682 72.99907684326172 9.440017700195312 L 72.99907684326172 10.39679527282715 L 72.99907684326172 11.39679527282715 L 71.99907684326172 11.39679527282715 L 65.55988311767578 11.39679527282715 L 64.55988311767578 11.39679527282715 L 64.55988311767578 10.39679527282715 L 64.55988311767578 9.788351058959961 C 64.55988311767578 7.851684093475342 64.21738433837891 6.944045066833496 63.93007659912109 6.523684024810791 C 63.57957458496094 6.013211727142334 63.11582565307617 5.78479528427124 62.42760467529297 5.78479528427124 C 61.8041877746582 5.78479528427124 61.01404571533203 5.960322856903076 60.43265914916992 7.329184055328369 C 60.05276870727539 8.225517272949219 59.59957504272461 10.57287883758545 59.59957504272461 16.66132354736328 C 59.59957504272461 22.69501686096191 60.12740707397461 24.60298919677734 60.44204711914062 25.20326805114746 C 60.90929794311523 26.09593391418457 61.53488159179688 26.49376678466797 62.47079849243164 26.49376678466797 C 63.20974349975586 26.49376678466797 63.72271347045898 26.21148872375488 64.13407897949219 25.57848930358887 C 64.46732330322266 25.0665168762207 64.86410522460938 23.97257232666016 64.86410522460938 21.66487884521484 L 64.86410522460938 21.3165454864502 L 64.86410522460938 20.3165454864502 L 65.86410522460938 20.3165454864502 L 72.34738159179688 20.3165454864502 L 73.34738159179688 20.3165454864502 L 73.34738159179688 21.3165454864502 L 73.34738159179688 22.23012924194336 C 73.34738159179688 25.71935081481934 72.47688293457031 28.44826698303223 70.76001739501953 30.34110069274902 C 69.01793670654297 32.26160049438477 66.25813293457031 33.23537826538086 62.55721282958984 33.23537826538086 Z M 199.5499572753906 32.88704681396484 L 198.5499572753906 32.88704681396484 L 183.6284942626953 32.88704681396484 L 182.6284942626953 32.88704681396484 L 182.6284942626953 31.88704490661621 L 182.6284942626953 27.40646171569824 L 182.6284942626953 27.12221145629883 L 182.7780151367188 26.88043403625488 L 190.2291717529297 14.83329486846924 L 183.9327087402344 14.83329486846924 L 182.9327087402344 14.83329486846924 L 182.9327087402344 13.83329486846924 L 182.9327087402344 9.917934417724609 L 182.9327087402344 8.917934417724609 L 183.9327087402344 8.917934417724609 L 198.4194946289062 8.917934417724609 L 199.4194946289062 8.917934417724609 L 199.4194946289062 9.917934417724609 L 199.4194946289062 14.051100730896 L 199.4194946289062 14.33504486083984 L 199.2702941894531 14.57660102844238 L 191.6410522460938 26.92851638793945 L 198.5499572753906 26.92851638793945 L 199.5499572753906 26.92851638793945 L 199.5499572753906 27.92851638793945 L 199.5499572753906 31.88704490661621 L 199.5499572753906 32.88704681396484 Z M 181.1911010742188 32.88704681396484 L 180.1911010742188 32.88704681396484 L 174.0579376220703 32.88704681396484 L 173.0579376220703 32.88704681396484 L 173.0579376220703 31.88704490661621 L 173.0579376220703 16.83596229553223 C 173.0579376220703 15.16765594482422 172.7738037109375 14.70812797546387 172.7168273925781 14.63296222686768 C 172.6034698486328 14.4838228225708 172.4051361083984 14.31123924255371 171.8815765380859 14.31123924255371 C 171.2583465576172 14.31123924255371 171.0261535644531 14.54737854003906 170.8812103271484 14.7783784866333 C 170.593017578125 15.23773956298828 170.4468841552734 15.82735061645508 170.4468841552734 16.53082275390625 L 170.4468841552734 31.88704490661621 L 170.4468841552734 32.88704681396484 L 169.4468841552734 32.88704681396484 L 163.3128204345703 32.88704681396484 L 162.3128204345703 32.88704681396484 L 162.3128204345703 31.88704490661621 L 162.3128204345703 9.917934417724609 L 162.3128204345703 8.917934417724609 L 163.3128204345703 8.917934417724609 L 169.3595733642578 8.917934417724609 L 170.3210144042969 8.917934417724609 L 170.3530578613281 9.732544898986816 C 171.5018920898438 8.902133941650391 172.9008941650391 8.483211517333984 174.5359039306641 8.483211517333984 C 176.5228881835938 8.483211517333984 178.1387939453125 9.030600547790527 179.3387908935547 10.11015605926514 C 180.5679931640625 11.21676731109619 181.1911010742188 12.83515644073486 181.1911010742188 14.92057323455811 L 181.1911010742188 31.88704490661621 L 181.1911010742188 32.88704681396484 Z M 137.6885528564453 32.88704681396484 L 136.6885528564453 32.88704681396484 L 130.5545196533203 32.88704681396484 L 129.5545196533203 32.88704681396484 L 129.5545196533203 31.88704490661621 L 129.5545196533203 14.65957260131836 L 129.1179656982422 14.65957260131836 L 127.1171340942383 14.65957260131836 L 127.1171340942383 31.88704490661621 L 127.1171340942383 32.88704681396484 L 126.1171340942383 32.88704681396484 L 120.1136016845703 32.88704681396484 L 119.1136016845703 32.88704681396484 L 119.1136016845703 31.88704490661621 L 119.1136016845703 14.65957260131836 L 117.3719329833984 14.65957260131836 L 116.3719329833984 14.65957260131836 L 116.3719329833984 13.65957260131836 L 116.3719329833984 9.917934417724609 L 116.3719329833984 8.917934417724609 L 117.3719329833984 8.917934417724609 L 119.1136016845703 8.917934417724609 L 119.1136016845703 6.220434188842773 C 119.1136016845703 3.901350736618042 119.6767425537109 2.145072937011719 120.7873840332031 1.000322818756104 C 121.9223251342773 -0.1705660223960876 124.0214614868164 -0.7398993372917175 127.2044372558594 -0.7398993372917175 L 127.2257690429688 -0.7398993372917175 L 127.2471008300781 -0.7389826774597168 L 129.2920532226562 -0.651677131652832 L 130.2709655761719 -0.6098993420600891 L 130.2690124511719 -0.5220659971237183 L 130.5545196533203 -0.5220659971237183 L 136.6885528564453 -0.5220659971237183 L 137.6885528564453 -0.5220659971237183 L 137.6885528564453 0.4779339730739594 L 137.6885528564453 5.437350749969482 L 137.6885528564453 6.437350749969482 L 136.6885528564453 6.437350749969482 L 130.5545196533203 6.437350749969482 L 129.5545196533203 6.437350749969482 L 129.5545196533203 5.437350749969482 L 129.5545196533203 5.262767314910889 L 129.1620788574219 5.262767314910889 C 128.9887237548828 5.262767314910889 128.8142395019531 5.248269081115723 128.6418762207031 5.219607353210449 C 127.8321380615234 5.238423824310303 127.5957107543945 5.523361682891846 127.516242980957 5.619128227233887 C 127.4231872558594 5.731573104858398 127.1171340942383 6.238489627838135 127.1171340942383 8.004378318786621 L 127.1171340942383 8.917934417724609 L 129.1179656982422 8.917934417724609 L 129.5545196533203 8.917934417724609 L 130.5545196533203 8.917934417724609 L 136.6885528564453 8.917934417724609 L 137.6885528564453 8.917934417724609 L 137.6885528564453 9.917934417724609 L 137.6885528564453 31.88704490661621 L 137.6885528564453 32.88704681396484 Z M 115.9363555908203 32.88704681396484 L 114.9363555908203 32.88704681396484 L 108.8023223876953 32.88704681396484 L 107.8023223876953 32.88704681396484 L 107.8023223876953 31.88704490661621 L 107.8023223876953 16.83596229553223 C 107.8023223876953 15.16762828826904 107.5182952880859 14.707350730896 107.4613800048828 14.63201713562012 C 107.3487167358398 14.4838228225708 107.1504058837891 14.31123924255371 106.626823425293 14.31123924255371 C 106.002799987793 14.31123924255371 105.7705230712891 14.54735088348389 105.625602722168 14.77832317352295 C 105.3373794555664 15.23773956298828 105.1912384033203 15.82735061645508 105.1912384033203 16.53082275390625 L 105.1912384033203 31.88704490661621 L 105.1912384033203 32.88704681396484 L 104.1912384033203 32.88704681396484 L 98.05721282958984 32.88704681396484 L 97.05721282958984 32.88704681396484 L 97.05721282958984 31.88704490661621 L 97.05721282958984 9.917934417724609 L 97.05721282958984 8.917934417724609 L 98.05721282958984 8.917934417724609 L 104.1048278808594 8.917934417724609 L 105.0666580200195 8.917934417724609 L 105.0983657836914 9.732429504394531 C 106.2474899291992 8.902099609375 107.6464767456055 8.483211517333984 109.2811889648438 8.483211517333984 C 111.267578125 8.483211517333984 112.883186340332 9.030600547790527 114.0831604003906 10.11015605926514 C 115.3129348754883 11.21726703643799 115.9363555908203 12.83565616607666 115.9363555908203 14.92057323455811 L 115.9363555908203 31.88704490661621 L 115.9363555908203 32.88704681396484 Z M 14.87832546234131 32.88704681396484 L 13.87832546234131 32.88704681396484 L 7.221325397491455 32.88704681396484 L 6.221325397491455 32.88704681396484 L 6.221325397491455 31.88704490661621 L 6.221325397491455 6.567878246307373 L -8.104112566797994e-06 6.567878246307373 L -1.000008106231689 6.567878246307373 L -1.000008106231689 5.567878246307373 L -1.000008106231689 0.4779339730739594 L -1.000008106231689 -0.5220659971237183 L -8.104112566797994e-06 -0.5220659971237183 L 21.18696403503418 -0.5220659971237183 L 22.18696403503418 -0.5220659971237183 L 22.18696403503418 0.4779339730739594 L 22.18696403503418 5.567878246307373 L 22.18696403503418 6.567878246307373 L 21.18696403503418 6.567878246307373 L 14.87832546234131 6.567878246307373 L 14.87832546234131 31.88704490661621 L 14.87832546234131 32.88704681396484 Z" stroke="none"/>
      <path d="M 84.26620483398438 32.45318984985352 C 87.51428985595703 32.45318984985352 89.90023040771484 31.69127655029297 91.42317199707031 30.16833686828613 C 92.94611358642578 28.64630699157715 93.70714569091797 25.40465927124023 93.70714569091797 20.44615936279297 C 93.70714569091797 16.03727722167969 93.00311279296875 13.08698272705078 91.59687805175781 11.59254169464111 C 90.18975830078125 10.09901237487793 87.86260986328125 9.352688789367676 84.61452484130859 9.352688789367676 C 81.54014587402344 9.352688789367676 79.29940795898438 10.15048313140869 77.89320373535156 11.74510097503662 C 76.48605346679688 13.33971786499023 75.78296661376953 16.41410064697266 75.78296661376953 20.96727752685547 C 75.78296661376953 25.2603645324707 76.46490478515625 28.2474250793457 77.82793426513672 29.92936515808105 C 79.19002532958984 31.61130714416504 81.33702087402344 32.45318984985352 84.26620483398438 32.45318984985352 M 84.78823089599609 13.22392463684082 C 85.97755432128906 13.22392463684082 86.731201171875 13.72389507293701 87.05010986328125 14.7248067855835 C 87.3699951171875 15.72568893432617 87.52896881103516 17.26977729797363 87.52896881103516 19.35795402526855 L 87.52896881103516 21.92407035827637 C 87.52896881103516 24.30268859863281 87.33319854736328 25.98554229736328 86.94258117675781 26.97171783447266 C 86.55105590820312 27.95792388916016 85.80384826660156 28.45148277282715 84.70185089111328 28.45148277282715 C 83.51161193847656 28.45148277282715 82.75152587890625 27.9138069152832 82.41790771484375 26.84030723571777 C 82.08335113525391 25.76863098144531 81.9169921875 23.76777648925781 81.9169921875 20.83768844604492 L 81.9169921875 19.18333625793457 C 81.9169921875 16.83595275878906 82.14122772216797 15.25512981414795 82.59161376953125 14.44171810150146 C 83.04102325439453 13.63015937805176 83.77355194091797 13.22392463684082 84.78823089599609 13.22392463684082 M 207.2942657470703 32.27948379516602 C 209.7583465576172 32.27948379516602 211.6452331542969 31.17751312255859 212.9503173828125 28.97260093688965 C 213.0946350097656 30.01668930053711 213.1948547363281 30.99001312255859 213.2545471191406 31.88704109191895 L 218.9538726806641 31.88704109191895 C 218.8656463623047 31.19218826293945 218.7930603027344 30.52401161193848 218.7351379394531 29.88615989685059 C 218.6772308349609 29.24833679199219 218.6331176757812 28.30715942382812 218.6055603027344 27.05904197692871 L 218.6055603027344 16.48671913146973 C 218.6055603027344 14.10992431640625 217.9741058349609 12.34710025787354 216.7131195068359 11.20192432403564 C 215.4512023925781 10.05580615997314 213.3409729003906 9.483218193054199 210.3824005126953 9.483218193054199 C 207.6563415527344 9.483218193054199 205.5617523193359 9.977688789367676 204.0967254638672 10.96295356750488 C 202.6316680908203 11.94913005828857 201.9000854492188 13.61545372009277 201.9000854492188 15.96557140350342 L 201.9000854492188 16.26889419555664 L 207.685791015625 16.26889419555664 C 207.685791015625 15.023512840271 207.8889007568359 14.13842391967773 208.2942352294922 13.61545372009277 C 208.7004699707031 13.09433555603027 209.3235778808594 12.83330631256104 210.1654968261719 12.83330631256104 C 211.0937652587891 12.83330631256104 211.7380828857422 13.0511302947998 212.1011199951172 13.48495388031006 C 212.4632568359375 13.92151260375977 212.644287109375 14.61633586883545 212.644287109375 15.57312965393066 L 212.644287109375 18.05374717712402 L 211.0349426269531 18.05374717712402 C 207.2354125976562 18.05374717712402 204.6757354736328 18.66312980651855 203.3568115234375 19.88092422485352 C 202.0360870361328 21.09963035583496 201.3771057128906 22.95527648925781 201.3771057128906 25.4497184753418 C 201.3771057128906 27.62518882751465 201.8853759765625 29.30713081359863 202.9000854492188 30.49554252624512 C 203.9156494140625 31.68483543395996 205.3797912597656 32.27948379516602 207.2942657470703 32.27948379516602 M 212.340087890625 21.27333641052246 L 212.8189392089844 21.27333641052246 L 212.8189392089844 23.0131893157959 C 212.8189392089844 25.01498222351074 212.5505218505859 26.44233512878418 212.0147247314453 27.29801177978516 C 211.4770202636719 28.15368843078613 210.6866455078125 28.58198356628418 209.6434631347656 28.58198356628418 C 208.9467926025391 28.58198356628418 208.3962249755859 28.35036468505859 207.9899597167969 27.88530731201172 C 207.5837554931641 27.42207145690918 207.3815765380859 26.44968795776367 207.3815765380859 24.97086524963379 C 207.3815765380859 23.31742477416992 207.8089294433594 22.28801155090332 208.6646423339844 21.88268852233887 C 209.5193786621094 21.47645378112793 210.7454681396484 21.27333641052246 212.340087890625 21.27333641052246 M 146.8684387207031 32.27948379516602 C 149.33251953125 32.27948379516602 151.2184906005859 31.17751312255859 152.5236053466797 28.97260093688965 C 152.6688537597656 30.01668930053711 152.7689971923828 30.99001312255859 152.8278503417969 31.88704109191895 L 158.5271148681641 31.88704109191895 C 158.4398193359375 31.19218826293945 158.3671722412109 30.52401161193848 158.3083801269531 29.88615989685059 C 158.25048828125 29.24833679199219 158.2063751220703 28.30715942382812 158.1787567138672 27.05904197692871 L 158.1787567138672 16.48671913146973 C 158.1787567138672 14.10992431640625 157.5482940673828 12.34710025787354 156.286376953125 11.20192432403564 C 155.0244598388672 10.05580615997314 152.9151458740234 9.483218193054199 149.9566192626953 9.483218193054199 C 147.2296447753906 9.483218193054199 145.1341094970703 9.977688789367676 143.6699981689453 10.96295356750488 C 142.2049407958984 11.94913005828857 141.4733123779297 13.61545372009277 141.4733123779297 15.96557140350342 L 141.4733123779297 16.26889419555664 L 147.2590484619141 16.26889419555664 C 147.2590484619141 15.023512840271 147.4621734619141 14.13842391967773 147.8674926757812 13.61545372009277 C 148.2746429443359 13.09433555603027 148.8968811035156 12.83330631256104 149.7387542724609 12.83330631256104 C 150.6670532226562 12.83330631256104 151.3113555908203 13.0511302947998 151.67529296875 13.48495388031006 C 152.0364990234375 13.92151260375977 152.2184600830078 14.61633586883545 152.2184600830078 15.57312965393066 L 152.2184600830078 18.05374717712402 L 150.6091461181641 18.05374717712402 C 146.8087005615234 18.05374717712402 144.2499389648438 18.66312980651855 142.9301147460938 19.88092422485352 C 141.6112060546875 21.09963035583496 140.9512939453125 22.95527648925781 140.9512939453125 25.4497184753418 C 140.9512939453125 27.62518882751465 141.4577331542969 29.30713081359863 142.4742279052734 30.49554252624512 C 143.4889068603516 31.68483543395996 144.9530181884766 32.27948379516602 146.8684387207031 32.27948379516602 M 151.9142303466797 21.27333641052246 L 152.3930816650391 21.27333641052246 L 152.3930816650391 23.0131893157959 C 152.3930816650391 25.01498222351074 152.1246948242188 26.44233512878418 151.5879364013672 27.29801177978516 C 151.0512084960938 28.15368843078613 150.2608184814453 28.58198356628418 149.2167358398438 28.58198356628418 C 148.5199890136719 28.58198356628418 147.9704132080078 28.35036468505859 147.5632629394531 27.88530731201172 C 147.1570281982422 27.42207145690918 146.9548187255859 26.44968795776367 146.9548187255859 24.97086524963379 C 146.9548187255859 23.31742477416992 147.3831176757812 22.28801155090332 148.2387847900391 21.88268852233887 C 149.0935211181641 21.47645378112793 150.3186950683594 21.27333641052246 151.9142303466797 21.27333641052246 M 26.27690696716309 32.27948379516602 C 27.46529006958008 32.27948379516602 28.47352409362793 32.06074905395508 29.30072975158691 31.62601280212402 C 30.12696647644043 31.19218826293945 30.85949516296387 30.49554252624512 31.49734878540039 29.5378360748291 L 31.58373069763184 31.88704109191895 L 37.54405212402344 31.88704109191895 C 37.51558303833008 31.39533615112305 37.48617172241211 29.88615989685059 37.45676040649414 27.36327743530273 L 37.45676040649414 9.917953491210938 L 31.32273101806641 9.917953491210938 L 31.32273101806641 24.92674827575684 C 31.32273101806641 25.9708366394043 31.12052536010742 26.81180572509766 30.71428871154785 27.45057106018066 C 30.30805397033691 28.08842468261719 29.72717094421387 28.40733528137207 28.97352409362793 28.40733528137207 C 27.61049461364746 28.40733528137207 26.92946624755859 27.27686500549316 26.92946624755859 25.01498222351074 L 26.92946624755859 9.917953491210938 L 20.83861351013184 9.917953491210938 L 20.83861351013184 26.53607177734375 C 20.83861351013184 28.27683639526367 21.28805351257324 29.66833686828613 22.18693542480469 30.71336555480957 C 23.08578872680664 31.75654220581055 24.44972991943359 32.27948379516602 26.27690696716309 32.27948379516602 M 62.55720138549805 32.23536682128906 C 65.97990417480469 32.23536682128906 68.46696472167969 31.38063049316406 70.01931762695312 29.66927719116211 C 71.57073211669922 27.95883560180664 72.34737396240234 25.47818946838379 72.34737396240234 22.23012924194336 L 72.34737396240234 21.31654167175293 L 65.86411285400391 21.31654167175293 L 65.86411285400391 21.66486549377441 C 65.86411285400391 23.72365951538086 65.56723022460938 25.20983505249023 64.97257995605469 26.12339401245117 C 64.37884521484375 27.03698348999023 63.54431915283203 27.49377632141113 62.47079086303711 27.49377632141113 C 61.1666145324707 27.49377632141113 60.19329071044922 26.88442420959473 59.55634689331055 25.66754150390625 C 58.91758346557617 24.44880676269531 58.59958267211914 21.44798278808594 58.59958267211914 16.66133499145508 C 58.59958267211914 11.61551284790039 58.90378952026367 8.373865127563477 59.51222991943359 6.938247680664062 C 60.12158203125 5.503541946411133 61.09308242797852 4.784806728363037 62.4276123046875 4.784806728363037 C 63.44319915771484 4.784806728363037 64.21799468994141 5.17633581161499 64.75566864013672 5.959394931793213 C 65.29149627685547 6.74339485168457 65.55987548828125 8.020012855529785 65.55987548828125 9.788335800170898 L 65.55987548828125 10.39677715301514 L 71.99905395507812 10.39677715301514 L 71.99905395507812 9.440011978149414 C 71.99905395507812 6.191924095153809 71.22975921630859 3.805953502655029 69.69302368164062 2.283041715621948 C 68.15449523925781 0.7610124349594116 65.87882232666016 1.241167865373427e-05 62.86325836181641 1.241167865373427e-05 C 59.87528991699219 1.241167865373427e-05 57.62717056274414 0.5588065385818481 56.11987686157227 1.673659443855286 C 54.61164093017578 2.791277170181274 53.55376052856445 4.292159557342529 52.94346618652344 6.177218437194824 C 52.33502578735352 8.062276840209961 52.0299072265625 11.41330623626709 52.0299072265625 16.22568893432617 C 52.0299072265625 20.95348358154297 52.34146499633789 24.27418899536133 52.96552276611328 26.18774795532227 C 53.58958435058594 28.10313034057617 54.64749526977539 29.58930587768555 56.14099502563477 30.64901161193848 C 57.63543701171875 31.70780563354492 59.774169921875 32.23536682128906 62.55720138549805 32.23536682128906 M 198.5499725341797 31.88704109191895 L 198.5499725341797 27.92851257324219 L 189.8480224609375 27.92851257324219 L 198.4194946289062 14.051100730896 L 198.4194946289062 9.917953491210938 L 183.9327239990234 9.917953491210938 L 183.9327239990234 13.83327674865723 L 192.0234985351562 13.83327674865723 L 183.6284942626953 27.40645408630371 L 183.6284942626953 31.88704109191895 L 198.5499725341797 31.88704109191895 M 180.1911163330078 31.88704109191895 L 180.1911163330078 14.92057132720947 C 180.1911163330078 13.12280654907227 179.6837310791016 11.76624774932861 178.6699981689453 10.85357093811035 C 177.6534729003906 9.939071655273438 176.2757873535156 9.483218193054199 174.5359039306641 9.483218193054199 C 172.302490234375 9.483218193054199 170.6049346923828 10.36830615997314 169.4468841552734 12.13754177093506 L 169.3595581054688 9.917953491210938 L 163.3128509521484 9.917953491210938 L 163.3128509521484 31.88704109191895 L 169.4468841552734 31.88704109191895 L 169.4468841552734 16.53080558776855 C 169.4468841552734 15.63195323944092 169.6426391601562 14.87092399597168 170.0341644287109 14.24686527252197 C 170.4257354736328 13.62280654907227 171.0414886474609 13.31124782562256 171.8815612792969 13.31124782562256 C 172.6067352294922 13.31124782562256 173.14990234375 13.55018901824951 173.5138702392578 14.02904224395752 C 173.8759918212891 14.50698280334473 174.0579376220703 15.44260025024414 174.0579376220703 16.83595275878906 L 174.0579376220703 31.88704109191895 L 180.1911163330078 31.88704109191895 M 136.6885528564453 31.88704109191895 L 136.6885528564453 9.917953491210938 L 130.5545196533203 9.917953491210938 L 130.5545196533203 31.88704109191895 L 136.6885528564453 31.88704109191895 M 126.1171417236328 31.88704109191895 L 126.1171417236328 13.65957164764404 L 129.1179656982422 13.65957164764404 L 129.1179656982422 9.917953491210938 L 126.1171417236328 9.917953491210938 L 126.1171417236328 8.00439453125 C 126.1171417236328 6.496159553527832 126.3266754150391 5.487894535064697 126.7467041015625 4.980571269989014 C 127.1676406860352 4.473218441009521 127.8275833129883 4.218629837036133 128.7273406982422 4.218629837036133 C 128.8716430664062 4.24804162979126 129.0159606933594 4.262747764587402 129.1620788574219 4.262747764587402 L 129.2493743896484 0.347424179315567 L 127.2044372558594 0.2601006329059601 C 124.3331451416016 0.2601006329059601 122.4334106445312 0.7389535903930664 121.5051116943359 1.696659445762634 C 120.5768203735352 2.653424263000488 120.1136093139648 4.161659240722656 120.1136093139648 6.220424175262451 L 120.1136093139648 9.917953491210938 L 117.3719329833984 9.917953491210938 L 117.3719329833984 13.65957164764404 L 120.1136093139648 13.65957164764404 L 120.1136093139648 31.88704109191895 L 126.1171417236328 31.88704109191895 M 114.9363784790039 31.88704109191895 L 114.9363784790039 14.92057132720947 C 114.9363784790039 13.12280654907227 114.4280853271484 11.76624774932861 113.4143218994141 10.85357093811035 C 112.397819519043 9.939071655273438 111.02099609375 9.483218193054199 109.2811737060547 9.483218193054199 C 107.0468444824219 9.483218193054199 105.3502044677734 10.36830615997314 104.1912307739258 12.13754177093506 L 104.104850769043 9.917953491210938 L 98.05719757080078 9.917953491210938 L 98.05719757080078 31.88704109191895 L 104.1912307739258 31.88704109191895 L 104.1912307739258 16.53080558776855 C 104.1912307739258 15.63195323944092 104.3869934082031 14.87092399597168 104.7785263061523 14.24686527252197 C 105.170051574707 13.62280654907227 105.7858505249023 13.31124782562256 106.6268157958984 13.31124782562256 C 107.3519973754883 13.31124782562256 107.8951721191406 13.55018901824951 108.2591400146484 14.02904224395752 C 108.6203460693359 14.50698280334473 108.8023223876953 15.44260025024414 108.8023223876953 16.83595275878906 L 108.8023223876953 31.88704109191895 L 114.9363784790039 31.88704109191895 M 13.87831878662109 31.88704109191895 L 13.87831878662109 5.567865371704102 L 21.18696594238281 5.567865371704102 L 21.18696594238281 0.4779241681098938 L -4.836138487007702e-06 0.4779241681098938 L -4.836138487007702e-06 5.567865371704102 L 7.22131872177124 5.567865371704102 L 7.22131872177124 31.88704109191895 L 13.87831878662109 31.88704109191895 M 136.6885528564453 5.437365531921387 L 136.6885528564453 0.4779241681098938 L 130.5545196533203 0.4779241681098938 L 130.5545196533203 5.437365531921387 L 136.6885528564453 5.437365531921387 M 84.26620483398438 34.45318984985352 C 80.71731567382812 34.45318984985352 78.02825927734375 33.35462951660156 76.27367401123047 31.18804168701172 C 75.17859649658203 29.83676147460938 74.451171875 27.94095993041992 74.07849884033203 25.44730186462402 C 73.67319488525391 27.70406532287598 72.81098175048828 29.5683765411377 71.500732421875 31.01295280456543 C 69.56111145019531 33.15121841430664 66.55211639404297 34.23536682128906 62.55720138549805 34.23536682128906 C 59.31799697875977 34.23536682128906 56.84102630615234 33.5960693359375 54.98479080200195 32.28095245361328 C 53.13958358764648 30.97168922424316 51.8207893371582 29.1303653717041 51.06390762329102 26.80730628967285 C 50.36820220947266 24.67401313781738 50.0299072265625 21.21257209777832 50.0299072265625 16.22568893432617 C 50.0299072265625 11.15683555603027 50.36034774780273 7.669012546539307 51.04014205932617 5.562894821166992 C 51.77923202514648 3.280012369155884 53.08749389648438 1.431424140930176 54.92914199829102 0.06674770265817642 C 56.80984878540039 -1.324281692504883 59.40467071533203 -1.999987602233887 62.86325836181641 -1.999987602233887 C 66.40934753417969 -1.999987602233887 69.18043518066406 -1.037340521812439 71.09958648681641 0.861218273639679 C 73.02396392822266 2.768277168273926 73.99905395507812 5.654189109802246 73.99905395507812 9.440011978149414 L 73.99905395507812 10.39677715301514 C 73.99905395507812 11.50133609771729 73.10361480712891 12.39677715301514 71.99905395507812 12.39677715301514 L 65.55987548828125 12.39677715301514 C 64.455322265625 12.39677715301514 63.55987930297852 11.50133609771729 63.55987930297852 10.39677715301514 L 63.55987930297852 9.788335800170898 C 63.55987930297852 7.900924205780029 63.21131896972656 7.244218349456787 63.10446548461914 7.087894916534424 C 62.98361206054688 6.911924362182617 62.86273193359375 6.784806728363037 62.4276123046875 6.784806728363037 C 62.14178848266602 6.784806728363037 61.75032043457031 6.784806728363037 61.35308456420898 7.720100879669189 C 61.07205581665039 8.38318920135498 60.59958267211914 10.4286003112793 60.59958267211914 16.66133499145508 C 60.59958267211914 22.86739540100098 61.15696716308594 24.41316032409668 61.32778930664062 24.73910140991211 C 61.65826034545898 25.37045288085938 61.99705505371094 25.49377632141113 62.47079086303711 25.49377632141113 C 62.86384963989258 25.49377632141113 63.07199478149414 25.37763023376465 63.29561233520508 25.03354263305664 C 63.46708297729492 24.77010154724121 63.86411285400391 23.91701316833496 63.86411285400391 21.66486549377441 L 63.86411285400391 21.31654167175293 C 63.86411285400391 20.21198272705078 64.75955200195312 19.31654167175293 65.86411285400391 19.31654167175293 L 72.34737396240234 19.31654167175293 C 72.91691589355469 19.31654167175293 73.43086242675781 19.55461692810059 73.79512023925781 19.93667030334473 C 73.90482330322266 15.3942756652832 74.75785064697266 12.2754545211792 76.39358520507812 10.42177677154541 C 78.18931579589844 8.385453224182129 80.95537567138672 7.352688789367676 84.61452484130859 7.352688789367676 C 88.42041015625 7.352688789367676 91.25937652587891 8.317748069763184 93.05258178710938 10.22107124328613 C 94.839111328125 12.11965942382812 95.70714569091797 15.46401214599609 95.70714569091797 20.44615936279297 C 95.70714569091797 23.10477638244629 95.50308227539062 25.26598358154297 95.08325958251953 27.05324745178223 C 94.61137390136719 29.06224822998047 93.87660980224609 30.54395294189453 92.83696746826172 31.58298301696777 C 90.93255615234375 33.48736572265625 88.04882049560547 34.45318984985352 84.26620483398438 34.45318984985352 Z M 84.39917755126953 26.41596794128418 C 84.43738555908203 26.42945098876953 84.53483581542969 26.45148277282715 84.70185089111328 26.45148277282715 C 84.91149139404297 26.45148277282715 84.98435211181641 26.41362953186035 84.98690032958984 26.41225433349609 C 84.98690032958984 26.41225433349609 84.98690032958984 26.41225433349609 84.98690032958984 26.41225433349609 C 84.98633575439453 26.41225624084473 85.02925872802734 26.37090110778809 85.08373260498047 26.2337474822998 C 85.24964141845703 25.8148365020752 85.52896881103516 24.69577789306641 85.52896881103516 21.92407035827637 L 85.52896881103516 19.35795402526855 C 85.52896881103516 17.02468872070312 85.32019805908203 15.88168907165527 85.14505767822266 15.33365917205811 C 85.13426208496094 15.29982089996338 85.12450408935547 15.2756233215332 85.11702728271484 15.25923347473145 C 85.07129669189453 15.24557113647461 84.97012329101562 15.22392463684082 84.78823089599609 15.22392463684082 C 84.44464111328125 15.22392463684082 84.40790557861328 15.29021835327148 84.34126281738281 15.41060066223145 C 84.27046203613281 15.53848266601562 83.9169921875 16.32180595397949 83.9169921875 19.18333625793457 L 83.9169921875 20.83768844604492 C 83.9169921875 24.39907073974609 84.17390441894531 25.75377655029297 84.3270263671875 26.24430656433105 C 84.35797119140625 26.34382820129395 84.38578796386719 26.39490509033203 84.39917755126953 26.41596794128418 Z M 207.2942657470703 34.27948379516602 C 204.7774353027344 34.27948379516602 202.7872924804688 33.44333648681641 201.3791351318359 31.7943058013916 C 201.06640625 31.42802619934082 200.7898712158203 31.02951240539551 200.5499725341797 30.5998649597168 L 200.5499725341797 31.88704109191895 C 200.5499725341797 32.99160003662109 199.6545257568359 33.88704299926758 198.5499725341797 33.88704299926758 L 183.6284942626953 33.88704299926758 C 182.8979034423828 33.88704299926758 182.2588195800781 33.49532318115234 181.9098052978516 32.91041946411133 C 181.560791015625 33.49532318115234 180.9217071533203 33.88704299926758 180.1911163330078 33.88704299926758 L 174.0579376220703 33.88704299926758 C 172.9533843994141 33.88704299926758 172.0579376220703 32.99160003662109 172.0579376220703 31.88704109191895 L 172.0579376220703 16.83595275878906 C 172.0579376220703 15.96644496917725 171.9771423339844 15.5158748626709 171.9232025146484 15.31196117401123 C 171.9104919433594 15.31151008605957 171.8966217041016 15.31124782562256 171.8815612792969 15.31124782562256 C 171.8014984130859 15.31124782562256 171.7494812011719 15.31804084777832 171.7196502685547 15.32385063171387 C 171.5386657714844 15.6202974319458 171.4468841552734 16.02628517150879 171.4468841552734 16.53080558776855 L 171.4468841552734 31.88704109191895 C 171.4468841552734 32.99160003662109 170.5514373779297 33.88704299926758 169.4468841552734 33.88704299926758 L 163.3128509521484 33.88704299926758 C 162.2082824707031 33.88704299926758 161.3128509521484 32.99160003662109 161.3128509521484 31.88704109191895 L 161.3128509521484 9.917953491210938 C 161.3128509521484 8.813394546508789 162.2082824707031 7.917953491210938 163.3128509521484 7.917953491210938 L 169.3595581054688 7.917953491210938 C 169.8482360839844 7.917953491210938 170.2971954345703 8.093558311462402 170.6454162597656 8.386075019836426 C 171.7814636230469 7.789669990539551 173.0887451171875 7.483218193054199 174.5359039306641 7.483218193054199 C 176.7774353027344 7.483218193054199 178.6183776855469 8.116924285888672 180.0076141357422 9.366718292236328 C 180.9597015380859 10.22388935089111 181.603271484375 11.32436084747314 181.9327239990234 12.65376949310303 L 181.9327239990234 9.917953491210938 C 181.9327239990234 8.813394546508789 182.8281707763672 7.917953491210938 183.9327239990234 7.917953491210938 L 198.4194946289062 7.917953491210938 C 199.5240478515625 7.917953491210938 200.4194946289062 8.813394546508789 200.4194946289062 9.917953491210938 L 200.4194946289062 12.64967918395996 C 200.4802856445312 12.4783239364624 200.5464019775391 12.31122970581055 200.6177673339844 12.14871788024902 C 201.1367645263672 10.96668910980225 201.9315185546875 10.00954151153564 202.9799041748047 9.303806304931641 C 204.8017578125 8.078600883483887 207.222900390625 7.483218193054199 210.3824005126953 7.483218193054199 C 213.8889007568359 7.483218193054199 216.3995208740234 8.215335845947266 218.0577545166016 9.721424102783203 C 219.7483215332031 11.25668907165527 220.6055603027344 13.5328950881958 220.6055603027344 16.48671913146973 L 220.6055603027344 27.03740501403809 C 220.6316986083984 28.20832252502441 220.6725158691406 29.10584259033203 220.7269287109375 29.70530700683594 C 220.7836456298828 30.32968902587891 220.8546142578125 30.97898292541504 220.9379425048828 31.63510131835938 C 221.0102844238281 32.20486450195312 220.8341979980469 32.77824783325195 220.4545288085938 33.20919036865234 C 220.0748443603516 33.64012908935547 219.5282287597656 33.88704299926758 218.9538726806641 33.88704299926758 L 213.2545471191406 33.88704299926758 C 212.6143035888672 33.88704299926758 212.0406951904297 33.58515167236328 211.6736907958984 33.11232757568359 C 210.4035949707031 33.88312149047852 208.9312133789062 34.27948379516602 207.2942657470703 34.27948379516602 Z M 209.5343322753906 26.57552528381348 C 209.5596160888672 26.57900428771973 209.5953063964844 26.58198356628418 209.6434631347656 26.58198356628418 C 210.0362854003906 26.58198356628418 210.1700592041016 26.47459983825684 210.3213195800781 26.23386573791504 C 210.4616241455078 26.00982666015625 210.7812652587891 25.28819847106934 210.8158721923828 23.36083221435547 C 210.1833648681641 23.44315528869629 209.798095703125 23.56775283813477 209.5791168212891 23.66354370117188 C 209.5280303955078 23.76061630249023 209.3815765380859 24.11407661437988 209.3815765380859 24.97086524963379 C 209.3815765380859 25.93789482116699 209.4800872802734 26.3963737487793 209.5343322753906 26.57552528381348 Z M 193.43408203125 25.92851257324219 L 198.5499725341797 25.92851257324219 C 198.8506469726562 25.92851257324219 199.1357879638672 25.99485206604004 199.3916320800781 26.11371612548828 C 199.3819580078125 25.89621162414551 199.3771057128906 25.67472648620605 199.3771057128906 25.4497184753418 C 199.3771057128906 22.38551330566406 200.259765625 20.01736450195312 202.0005187988281 18.41107177734375 C 202.0526275634766 18.36295890808105 202.1059722900391 18.31550979614258 202.1603698730469 18.26889419555664 L 201.9000854492188 18.26889419555664 C 200.7955169677734 18.26889419555664 199.9000854492188 17.37345314025879 199.9000854492188 16.26889419555664 L 199.9000854492188 15.96557140350342 C 199.9000854492188 15.78871059417725 199.9036865234375 15.61433506011963 199.9108734130859 15.4424295425415 L 193.43408203125 25.92851257324219 Z M 182.1906433105469 14.81638336181641 C 182.1909484863281 14.85103893280029 182.1911163330078 14.8856954574585 182.1911163330078 14.92057132720947 L 182.1911163330078 25.92829704284668 L 188.4348754882812 15.83327674865723 L 183.9327239990234 15.83327674865723 C 183.1854858398438 15.83327674865723 182.5339813232422 15.42351818084717 182.1906433105469 14.81638336181641 Z M 209.8661041259766 14.86464309692383 C 209.8208465576172 14.96791934967041 209.7043609619141 15.3063850402832 209.6877746582031 16.08009910583496 C 209.9985198974609 16.06748390197754 210.3172302246094 16.05941200256348 210.644287109375 16.05585289001465 L 210.644287109375 15.57312965393066 C 210.644287109375 15.21295642852783 210.6094512939453 14.98906707763672 210.5789947509766 14.86212253570557 C 210.49072265625 14.84728622436523 210.3567962646484 14.83330631256104 210.1654968261719 14.83330631256104 C 210.0023193359375 14.83330631256104 209.90966796875 14.85212802886963 209.8661041259766 14.86464309692383 Z M 146.8684387207031 34.27948379516602 C 144.3503723144531 34.27948379516602 142.3600311279297 33.44313049316406 140.9527282714844 31.79363059997559 C 139.6252288818359 30.24163055419922 138.9512939453125 28.10657119750977 138.9512939453125 25.4497184753418 C 138.9512939453125 22.38718795776367 139.8332824707031 20.01936531066895 141.5727844238281 18.41201210021973 C 141.6252899169922 18.36357498168945 141.6790313720703 18.3158130645752 141.7338409423828 18.26889419555664 L 141.4733123779297 18.26889419555664 C 140.3687591552734 18.26889419555664 139.4733123779297 17.37345314025879 139.4733123779297 16.26889419555664 L 139.4733123779297 15.96557140350342 C 139.4733123779297 14.51745319366455 139.7147827148438 13.23327732086182 140.1910247802734 12.14868927001953 C 140.7100219726562 10.96668910980225 141.5047912597656 10.00954151153564 142.5531768798828 9.303806304931641 C 144.3737335205078 8.078688621520996 146.7953491210938 7.483218193054199 149.9566192626953 7.483218193054199 C 153.4624633789062 7.483218193054199 155.9727935791016 8.215335845947266 157.6310272216797 9.721424102783203 C 159.3213806152344 11.25539493560791 160.1787567138672 13.53174781799316 160.1787567138672 16.48671913146973 L 160.1787567138672 27.03726959228516 C 160.2049560546875 28.2083625793457 160.2457885742188 29.10598945617676 160.3002014160156 29.70539474487305 C 160.3575897216797 30.32804107666016 160.4287567138672 30.97910118103027 160.5115203857422 31.63774681091309 C 160.5830535888672 32.20713043212891 160.4065551757812 32.77983474731445 160.0268707275391 33.21018981933594 C 159.6472320556641 33.64051055908203 159.1009979248047 33.88704299926758 158.5271148681641 33.88704299926758 L 152.8278503417969 33.88704299926758 C 152.1875915527344 33.88704299926758 151.6140289306641 33.58515167236328 151.2470397949219 33.11240768432617 C 149.9772033691406 33.88302230834961 148.5048828125 34.27948379516602 146.8684387207031 34.27948379516602 Z M 149.1076049804688 26.57551765441895 C 149.1327972412109 26.57899475097656 149.1684722900391 26.58198356628418 149.2167358398438 26.58198356628418 C 149.6098480224609 26.58198356628418 149.7432556152344 26.47501182556152 149.8936767578125 26.23524856567383 C 150.0356597900391 26.00891304016113 150.3556060791016 25.28765678405762 150.3900604248047 23.35899925231934 C 149.7908325195312 23.43612670898438 149.4018096923828 23.55390930175781 149.1528930664062 23.66361618041992 C 149.1018981933594 23.76008224487305 148.9548187255859 24.11316108703613 148.9548187255859 24.97086524963379 C 148.9548187255859 25.93793106079102 149.0533447265625 26.39640045166016 149.1076049804688 26.57551765441895 Z M 149.4393310546875 14.86472225189209 C 149.3940582275391 14.96808624267578 149.2776184082031 15.30661296844482 149.2610321044922 16.08014106750488 C 149.5719909667969 16.06750869750977 149.8911743164062 16.05941581726074 150.2184600830078 16.05585289001465 L 150.2184600830078 15.57312965393066 C 150.2184600830078 15.21340179443359 150.1835174560547 14.98942852020264 150.1528625488281 14.86221408843994 C 150.0645294189453 14.84733486175537 149.9304046630859 14.83330631256104 149.7387542724609 14.83330631256104 C 149.5751037597656 14.83330631256104 149.4825744628906 14.85223484039307 149.4393310546875 14.86472225189209 Z M 26.27690696716309 34.27948379516602 C 23.85014152526855 34.27948379516602 21.96428871154785 33.51889419555664 20.67178916931152 32.01889419555664 C 19.45499610900879 30.604248046875 18.83861351013184 28.76001167297363 18.83861351013184 26.53607177734375 L 18.83861351013184 9.917953491210938 C 18.83861351013184 8.813394546508789 19.73405456542969 7.917953491210938 20.83861351013184 7.917953491210938 L 26.92946624755859 7.917953491210938 C 28.03402519226074 7.917953491210938 28.92946624755859 8.813394546508789 28.92946624755859 9.917953491210938 L 28.92946624755859 25.01498222351074 C 28.92946624755859 25.6925106048584 29.00335884094238 26.09082221984863 29.06715774536133 26.30843734741211 C 29.2343864440918 26.00065612792969 29.32273101806641 25.52529907226562 29.32273101806641 24.92674827575684 L 29.32273101806641 9.917953491210938 C 29.32273101806641 8.813394546508789 30.21817207336426 7.917953491210938 31.32273101806641 7.917953491210938 L 37.45676040649414 7.917953491210938 C 38.56131744384766 7.917953491210938 39.45676040649414 8.813394546508789 39.45676040649414 9.917953491210938 L 39.45676040649414 27.35254669189453 C 39.49263763427734 30.42604637145996 39.52222442626953 31.45200157165527 39.54070281982422 31.77142333984375 C 39.57252502441406 32.32101058959961 39.37640762329102 32.85942459106445 38.99855422973633 33.2597770690918 C 38.62073135375977 33.66012954711914 38.09455490112305 33.88704299926758 37.54405212402344 33.88704299926758 L 31.58373069763184 33.88704299926758 C 31.07536315917969 33.88704299926758 30.61002922058105 33.69700241088867 30.25639152526855 33.38310623168945 C 30.24777793884277 33.38767623901367 30.2391242980957 33.39224624633789 30.23049545288086 33.39677810668945 C 29.11620140075684 33.98236465454102 27.78578948974609 34.27948379516602 26.27690696716309 34.27948379516602 Z M 136.6885528564453 33.88704299926758 L 130.5545196533203 33.88704299926758 C 129.4499664306641 33.88704299926758 128.5545196533203 32.99160003662109 128.5545196533203 31.88704109191895 L 128.5545196533203 15.65957164764404 L 128.1171417236328 15.65957164764404 L 128.1171417236328 31.88704109191895 C 128.1171417236328 32.99160003662109 127.2217025756836 33.88704299926758 126.1171417236328 33.88704299926758 L 120.1136093139648 33.88704299926758 C 119.0090560913086 33.88704299926758 118.1136093139648 32.99160003662109 118.1136093139648 31.88704109191895 L 118.1136093139648 15.65957164764404 L 117.3719329833984 15.65957164764404 C 117.2223358154297 15.65957164764404 117.0765991210938 15.64314937591553 116.9363784790039 15.61200428009033 L 116.9363784790039 31.88704109191895 C 116.9363784790039 32.99160003662109 116.0409393310547 33.88704299926758 114.9363784790039 33.88704299926758 L 108.8023223876953 33.88704299926758 C 107.6977615356445 33.88704299926758 106.8023223876953 32.99160003662109 106.8023223876953 31.88704109191895 L 106.8023223876953 16.83595275878906 C 106.8023223876953 15.9675989151001 106.7217712402344 15.51666831970215 106.6677627563477 15.311936378479 C 106.6552429199219 15.31150054931641 106.6416091918945 15.31124782562256 106.6268157958984 15.31124782562256 C 106.5462417602539 15.31124782562256 106.4939193725586 15.31809329986572 106.4639358520508 15.32394599914551 C 106.2829666137695 15.62043952941895 106.1912307739258 16.02634811401367 106.1912307739258 16.53080558776855 L 106.1912307739258 31.88704109191895 C 106.1912307739258 32.99160003662109 105.2957916259766 33.88704299926758 104.1912307739258 33.88704299926758 L 98.05719757080078 33.88704299926758 C 96.95264434814453 33.88704299926758 96.05719757080078 32.99160003662109 96.05719757080078 31.88704109191895 L 96.05719757080078 9.917953491210938 C 96.05719757080078 8.813394546508789 96.95264434814453 7.917953491210938 98.05719757080078 7.917953491210938 L 104.104850769043 7.917953491210938 C 104.5935363769531 7.917953491210938 105.0424880981445 8.093549728393555 105.3906936645508 8.38607120513916 C 106.5269317626953 7.789624691009521 107.8341217041016 7.483218193054199 109.2811737060547 7.483218193054199 C 111.5221099853516 7.483218193054199 113.3627624511719 8.116924285888672 114.7519683837891 9.366718292236328 C 114.9756393432617 9.568089485168457 115.182373046875 9.782962799072266 115.3719329833984 10.01096820831299 L 115.3719329833984 9.917953491210938 C 115.3719329833984 8.813394546508789 116.2673797607422 7.917953491210938 117.3719329833984 7.917953491210938 L 118.1136093139648 7.917953491210938 L 118.1136093139648 6.220424175262451 C 118.1136093139648 3.632335901260376 118.771728515625 1.641747713088989 120.0697021484375 0.3039535880088806 C 121.4210815429688 -1.090222835540771 123.6884078979492 -1.739899396896362 127.2044372558594 -1.739899396896362 C 127.2328796386719 -1.739899396896362 127.261344909668 -1.73928165435791 127.2897567749023 -1.738075852394104 L 129.3347015380859 -1.650752305984497 C 129.6042327880859 -1.639244079589844 129.8592987060547 -1.574799180030823 130.0900268554688 -1.467853665351868 C 130.2390899658203 -1.503307819366455 130.3946075439453 -1.522075772285461 130.5545196533203 -1.522075772285461 L 136.6885528564453 -1.522075772285461 C 137.7931060791016 -1.522075772285461 138.6885528564453 -0.6266346573829651 138.6885528564453 0.4779241681098938 L 138.6885528564453 5.437365531921387 C 138.6885528564453 6.541923999786377 137.7931060791016 7.437365531921387 136.6885528564453 7.437365531921387 L 130.5545196533203 7.437365531921387 C 129.7351379394531 7.437365531921387 129.0308380126953 6.944631576538086 128.7217864990234 6.239284515380859 C 128.6765747070312 6.234470844268799 128.6314086914062 6.228919506072998 128.5863342285156 6.222635269165039 C 128.4461975097656 6.230959415435791 128.3529357910156 6.250710487365723 128.3005676269531 6.267038345336914 C 128.2437286376953 6.426969528198242 128.123779296875 6.88542652130127 128.1174011230469 7.917953491210938 L 129.1179656982422 7.917953491210938 C 129.3711090087891 7.917953491210938 129.6133270263672 7.965007305145264 129.8362426757812 8.050814628601074 C 130.0591583251953 7.965007305145264 130.3013763427734 7.917953491210938 130.5545196533203 7.917953491210938 L 136.6885528564453 7.917953491210938 C 137.7931060791016 7.917953491210938 138.6885528564453 8.813394546508789 138.6885528564453 9.917953491210938 L 138.6885528564453 31.88704109191895 C 138.6885528564453 32.99160003662109 137.7931060791016 33.88704299926758 136.6885528564453 33.88704299926758 Z M 13.87831878662109 33.88704299926758 L 7.22131872177124 33.88704299926758 C 6.116759777069092 33.88704299926758 5.22131872177124 32.99160003662109 5.22131872177124 31.88704109191895 L 5.22131872177124 7.567865371704102 L -4.836138487007702e-06 7.567865371704102 C -1.10456371307373 7.567865371704102 -2.000004768371582 6.67242431640625 -2.000004768371582 5.567865371704102 L -2.000004768371582 0.4779241681098938 C -2.000004768371582 -0.6266346573829651 -1.10456371307373 -1.522075772285461 -4.836138487007702e-06 -1.522075772285461 L 21.18696594238281 -1.522075772285461 C 22.29152488708496 -1.522075772285461 23.18696594238281 -0.6266346573829651 23.18696594238281 0.4779241681098938 L 23.18696594238281 5.567865371704102 C 23.18696594238281 6.67242431640625 22.29152488708496 7.567865371704102 21.18696594238281 7.567865371704102 L 15.87831878662109 7.567865371704102 L 15.87831878662109 31.88704109191895 C 15.87831878662109 32.99160003662109 14.98287773132324 33.88704299926758 13.87831878662109 33.88704299926758 Z" stroke="none" fill="#fff"/>
    </g>
    <g id="Grupo_11380" data-name="Grupo 11380" transform="translate(-12825.42 2377.115)">
      <path id="Trazado_22340" data-name="Trazado 22340" d="M69.931,96.8c-.884,2.332-1.689,5.228-1.126,6.675-9.007,1.207-11.258-4.021-8.283-11.1,1.77-4.182,4.423-10.535,6.917-16.406,1.93-4.825,4.021-10.053,6.032-14.717,2.411-5.63,7.237-13.028,15.6-9.731-1.447,1.046-3.3,6.354-5.47,11.259-1.77,4.021-3.537,8.444-5.307,13.028,11.741,1.609,24.288-7.881,23-19.381-.483-5.066-4.023-9.489-13.511-9.65C78.778,46.616,68.965,51.2,64.3,58.358c-6.917,10.535-.884,17.29-.884,17.29-13.028,5.63-16.406-7-9.167-18.658,5.469-8.685,17.612-16.888,34.1-16.728a29.573,29.573,0,0,1,13.671,3.217c14.235,7.882,10.294,26.137-1.206,33.938a31.309,31.309,0,0,1-24.689,3.86c-2.012,5.147-4.182,10.374-6.193,15.52" transform="translate(-50.509 -40.261)" fill="#fff" stroke="#fff" stroke-linecap="round" stroke-linejoin="round" stroke-width="3"/>
      <path id="Trazado_22341" data-name="Trazado 22341" d="M127.558,81.328c1.045-1.93-.4-2.171-1.85-1.207C123.455,81.649,115.333,91.622,113,95.8c-1.205,2.253-2.412,4.746-2.412,7.319-3.619.081-7.077-1.206-8.443-5.066-1.368-3.7.884-9.65,3.135-14.074,1.126-2.01,2.493-4.423,3.7-6.916.8-2.011,2.011-5.952,1.529-8.123,2.492-.643,6.192-.4,8.2,1.689,1.449,1.448,1.367,4.022.242,6.836-.8,1.849-2.413,4.5-3.217,6.193-.563,1.287-.161.8.241.321,5.871-7,12.224-13.43,17.13-15.2,1.85-.723,4.342-.884,5.871.4,2.814,2.413,3.538,4.183,2.251,7-1.688,3.7-4.1,8.041-5.951,12.143-7.237,1.528-9.971-2.9-7.719-7" transform="translate(-49.423 -39.667)" fill="#fff" stroke="#fff" stroke-linecap="round" stroke-linejoin="round" stroke-width="3"/>
      <path id="Trazado_22342" data-name="Trazado 22342" d="M162.457,67.432c4.583-.24,10.213,1.047,11.9,5.55,2.171,5.951-2.413,12.384-8.766,15.2a30.456,30.456,0,0,1-14.476,2.252,5.991,5.991,0,0,0,.322,4.825c2.172,3.94,8.283,2.9,11.983,1.529a16.585,16.585,0,0,0,4.021-2.253c.643-.563,1.528,0,1.047,1.126a7.463,7.463,0,0,1-1.126,2.413,14.65,14.65,0,0,1-4.5,3.86A18.974,18.974,0,0,1,152,104.184a15.854,15.854,0,0,1-8.041-2.976c-2.815-2.171-4.022-5.307-4.022-9.006-.081-10.294,10.132-24.047,22.518-24.771m2.412,5.067c-1.366-.483-3.537-.081-6.434,3.377-2.976,3.54-5.79,8.444-6.193,10.536,12.707-1.529,15.6-12.867,12.626-13.913" transform="translate(-48.612 -39.685)" fill="#fff" stroke="#fff" stroke-linecap="round" stroke-linejoin="round" stroke-width="3"/>
      <path id="Trazado_22343" data-name="Trazado 22343" d="M188.435,85.348c.4-.483,1.206-1.367,1.447-1.609,4.825-5.548,12.224-13.348,16.97-14.958,1.93-.643,4.181-.884,5.629.4,2.815,2.413,3.378,3.941,2.091,6.755-1.287,2.9-3.137,6.193-4.746,9.329-.724,1.528-.884,3.378.563,1.367,4.906-6.594,14.316-16,19.623-17.854,1.849-.643,4.1-.884,5.63.4,2.813,2.413,3.539,4.182,2.252,7.077-1.689,3.7-3.94,8.042-5.79,12.064-2.091,4.422-2.976,10.212-.965,14.4-4.584,1.046-9.169.563-11.1-4.5-1.769-4.826,1.85-12.384,4.182-16.808.8-2.01-.4-2.172-1.769-1.206a28.505,28.505,0,0,0-4.825,4.343,81.6,81.6,0,0,0-7.559,9.65c-1.287,2.09-3.3,5.227-3.619,7.558-.323,1.77-2.171,1.287-3.619,1.207a7.634,7.634,0,0,1-5.871-4.745c-1.77-4.826,1.93-12.384,4.343-16.808.8-2.01-.483-2.172-1.93-1.206a48.841,48.841,0,0,0-4.745,4.423c-4.826,4.9-11.5,13.35-11.662,18.416v.082c-3.537.081-7-1.126-8.443-4.906-1.367-3.86.965-9.731,3.3-14.154,1.046-2.011,2.494-4.423,3.54-6.917.8-2.09,2.01-6.031,1.528-8.2,2.493-.642,6.434-.481,8.283,1.609,1.849,2.171,1.609,4.987-.081,8.2-.723,1.527-2.653,4.985-3.136,6.111-.643,1.287-.16,1.126.483.483" transform="translate(-47.887 -39.667)" fill="#fff" stroke="#fff" stroke-linecap="round" stroke-linejoin="round" stroke-width="3"/>
      <path id="Trazado_22344" data-name="Trazado 22344" d="M248.7,103.044c-4.5.8-9.168.161-11.018-4.745-1.689-4.745,1.849-11.822,4.261-16.807.965-2.012,2.573-5.229,2.976-6.193.884-2.011,2.011-4.906,1.447-6.917,2.573-.643,5.79-.321,7.72,1.689,2.011,2.09,2.011,5.388.724,8.122-2.492,5.067-4.021,8.2-5.065,10.536-2.573,5.469-2.655,11.581-1.046,14.314" transform="translate(-46.548 -39.67)" fill="#fff" stroke="#fff" stroke-linecap="round" stroke-linejoin="round" stroke-width="3"/>
      <path id="Trazado_22345" data-name="Trazado 22345" d="M290.91,102.571a14.972,14.972,0,0,1-6.272.16c-2.653-.643-4.906-2.573-4.664-5.469a19.528,19.528,0,0,1-15.119,5.711c-2.654-.242-6.6-2.172-7.56-6.354-1.528-6.434,1.126-14.877,7.4-21.874,5.388-6.032,14.154-8.524,19.221-6.193.884.4,1.849,1.207,1.688,2.253-.081.321-.643.321-1.528.481-4.181,1.126-7.237,3.86-9.973,7.159-4.583,5.709-9.328,17.37-5.065,19.14,2.9,1.287,7.961-2.9,11.5-7.8,2.736-3.619,4.826-7.72,4.505-8.765,0-.081-2.573-.161-2.9-1.689-.323-1.689.884-3.136,2.573-4.1,4.1-2.493,7.961-1.046,9.408,2.331.966,2.332.241,5.952-1.77,9.731-2.574,4.583-3.94,11.1-1.447,15.28" transform="translate(-46.131 -39.679)" fill="#fff" stroke="#fff" stroke-linecap="round" stroke-linejoin="round" stroke-width="3"/>
      <path id="Trazado_22346" data-name="Trazado 22346" d="M263.2,49.023a5.094,5.094,0,0,0-6.951.507l-.733.757-.734-.757a5.094,5.094,0,0,0-6.951-.507,5.349,5.349,0,0,0-.369,7.745l7.209,7.443a1.167,1.167,0,0,0,1.687,0l7.208-7.443a5.345,5.345,0,0,0-.364-7.745" transform="translate(-46.362 -40.099)" fill="#fff" stroke="#fff" stroke-linecap="round" stroke-linejoin="round" stroke-width="3"/>
      <path id="Trazado_22357" data-name="Trazado 22357" d="M263.194,49.269a5.094,5.094,0,0,0-6.951.507l-.733.757-.734-.757a5.094,5.094,0,0,0-6.951-.507,5.349,5.349,0,0,0-.369,7.745l7.209,7.443a1.167,1.167,0,0,0,1.687,0l7.208-7.443a5.345,5.345,0,0,0-.365-7.745" transform="translate(-46.362 -40.094)" fill="#fff" stroke="#fff" stroke-linecap="round" stroke-linejoin="round" stroke-width="3"/>
      <path id="Trazado_22376" data-name="Trazado 22376" d="M294.261,123.174a11.893,11.893,0,1,1-11.966-11.82,11.894,11.894,0,0,1,11.966,11.82" transform="translate(-45.843 -38.753)" fill="#fff" stroke="#fff" stroke-linecap="round" stroke-linejoin="round" stroke-width="3"/>
      <path id="Trazado_22377" data-name="Trazado 22377" d="M266.3,123.458a11.893,11.893,0,1,1-11.68-12.1,11.893,11.893,0,0,1,11.68,12.1" transform="translate(-46.436 -38.753)" fill="#fff" stroke="#fff" stroke-linecap="round" stroke-linejoin="round" stroke-width="3"/>
      <path id="Trazado_22378" data-name="Trazado 22378" d="M238.337,123.324a11.893,11.893,0,1,1-11.815-11.97,11.894,11.894,0,0,1,11.815,11.97" transform="translate(-47.029 -38.752)" fill="#fff" stroke="#fff" stroke-linecap="round" stroke-linejoin="round" stroke-width="3"/>
    </g>
    <g id="Grupo_11381" data-name="Grupo 11381" transform="translate(-12877 2336)">
      <g id="Grupo_11377" data-name="Grupo 11377" clip-path="url(#clip-path)">
        <g id="Grupo_11376" data-name="Grupo 11376">
          <g id="Grupo_11375" data-name="Grupo 11375" clip-path="url(#clip-path)">
            <path id="Trazado_22340-2" data-name="Trazado 22340" d="M69.931,96.8c-.884,2.332-1.689,5.228-1.126,6.675-9.007,1.207-11.258-4.021-8.283-11.1,1.77-4.182,4.423-10.535,6.917-16.406,1.93-4.825,4.021-10.053,6.032-14.717,2.411-5.63,7.237-13.028,15.6-9.731-1.447,1.046-3.3,6.354-5.47,11.259-1.77,4.021-3.537,8.444-5.307,13.028,11.741,1.609,24.288-7.881,23-19.381-.483-5.066-4.023-9.489-13.511-9.65C78.778,46.616,68.965,51.2,64.3,58.358c-6.917,10.535-.884,17.29-.884,17.29-13.028,5.63-16.406-7-9.167-18.658,5.469-8.685,17.612-16.888,34.1-16.728a29.573,29.573,0,0,1,13.671,3.217c14.235,7.882,10.294,26.137-1.206,33.938a31.309,31.309,0,0,1-24.689,3.86c-2.012,5.147-4.182,10.374-6.193,15.52" transform="translate(1.072 0.854)" fill="#00bce4"/>
            <path id="Trazado_22341-2" data-name="Trazado 22341" d="M127.558,81.328c1.045-1.93-.4-2.171-1.85-1.207C123.455,81.649,115.333,91.622,113,95.8c-1.205,2.253-2.412,4.746-2.412,7.319-3.619.081-7.077-1.206-8.443-5.066-1.368-3.7.884-9.65,3.135-14.074,1.126-2.01,2.493-4.423,3.7-6.916.8-2.011,2.011-5.952,1.529-8.123,2.492-.643,6.192-.4,8.2,1.689,1.449,1.448,1.367,4.022.242,6.836-.8,1.849-2.413,4.5-3.217,6.193-.563,1.287-.161.8.241.321,5.871-7,12.224-13.43,17.13-15.2,1.85-.723,4.342-.884,5.871.4,2.814,2.413,3.538,4.183,2.251,7-1.688,3.7-4.1,8.041-5.951,12.143-7.237,1.528-9.971-2.9-7.719-7" transform="translate(2.158 1.447)" fill="#00bce4"/>
            <path id="Trazado_22342-2" data-name="Trazado 22342" d="M162.457,67.432c4.583-.24,10.213,1.047,11.9,5.55,2.171,5.951-2.413,12.384-8.766,15.2a30.456,30.456,0,0,1-14.476,2.252,5.991,5.991,0,0,0,.322,4.825c2.172,3.94,8.283,2.9,11.983,1.529a16.585,16.585,0,0,0,4.021-2.253c.643-.563,1.528,0,1.047,1.126a7.463,7.463,0,0,1-1.126,2.413,14.65,14.65,0,0,1-4.5,3.86A18.974,18.974,0,0,1,152,104.184a15.854,15.854,0,0,1-8.041-2.976c-2.815-2.171-4.022-5.307-4.022-9.006-.081-10.294,10.132-24.047,22.518-24.771m2.412,5.067c-1.366-.483-3.537-.081-6.434,3.377-2.976,3.54-5.79,8.444-6.193,10.536,12.707-1.529,15.6-12.867,12.626-13.913" transform="translate(2.969 1.43)" fill="#00bce4"/>
            <path id="Trazado_22343-2" data-name="Trazado 22343" d="M188.435,85.348c.4-.483,1.206-1.367,1.447-1.609,4.825-5.548,12.224-13.348,16.97-14.958,1.93-.643,4.181-.884,5.629.4,2.815,2.413,3.378,3.941,2.091,6.755-1.287,2.9-3.137,6.193-4.746,9.329-.724,1.528-.884,3.378.563,1.367,4.906-6.594,14.316-16,19.623-17.854,1.849-.643,4.1-.884,5.63.4,2.813,2.413,3.539,4.182,2.252,7.077-1.689,3.7-3.94,8.042-5.79,12.064-2.091,4.422-2.976,10.212-.965,14.4-4.584,1.046-9.169.563-11.1-4.5-1.769-4.826,1.85-12.384,4.182-16.808.8-2.01-.4-2.172-1.769-1.206a28.505,28.505,0,0,0-4.825,4.343,81.6,81.6,0,0,0-7.559,9.65c-1.287,2.09-3.3,5.227-3.619,7.558-.323,1.77-2.171,1.287-3.619,1.207a7.634,7.634,0,0,1-5.871-4.745c-1.77-4.826,1.93-12.384,4.343-16.808.8-2.01-.483-2.172-1.93-1.206a48.841,48.841,0,0,0-4.745,4.423c-4.826,4.9-11.5,13.35-11.662,18.416v.082c-3.537.081-7-1.126-8.443-4.906-1.367-3.86.965-9.731,3.3-14.154,1.046-2.011,2.494-4.423,3.54-6.917.8-2.09,2.01-6.031,1.528-8.2,2.493-.642,6.434-.481,8.283,1.609,1.849,2.171,1.609,4.987-.081,8.2-.723,1.527-2.653,4.985-3.136,6.111-.643,1.287-.16,1.126.483.483" transform="translate(3.694 1.448)" fill="#00bce4"/>
            <path id="Trazado_22344-2" data-name="Trazado 22344" d="M248.7,103.044c-4.5.8-9.168.161-11.018-4.745-1.689-4.745,1.849-11.822,4.261-16.807.965-2.012,2.573-5.229,2.976-6.193.884-2.011,2.011-4.906,1.447-6.917,2.573-.643,5.79-.321,7.72,1.689,2.011,2.09,2.011,5.388.724,8.122-2.492,5.067-4.021,8.2-5.065,10.536-2.573,5.469-2.655,11.581-1.046,14.314" transform="translate(5.033 1.444)" fill="#00bce4"/>
            <path id="Trazado_22345-2" data-name="Trazado 22345" d="M290.91,102.571a14.972,14.972,0,0,1-6.272.16c-2.653-.643-4.906-2.573-4.664-5.469a19.528,19.528,0,0,1-15.119,5.711c-2.654-.242-6.6-2.172-7.56-6.354-1.528-6.434,1.126-14.877,7.4-21.874,5.388-6.032,14.154-8.524,19.221-6.193.884.4,1.849,1.207,1.688,2.253-.081.321-.643.321-1.528.481-4.181,1.126-7.237,3.86-9.973,7.159-4.583,5.709-9.328,17.37-5.065,19.14,2.9,1.287,7.961-2.9,11.5-7.8,2.736-3.619,4.826-7.72,4.505-8.765,0-.081-2.573-.161-2.9-1.689-.323-1.689.884-3.136,2.573-4.1,4.1-2.493,7.961-1.046,9.408,2.331.966,2.332.241,5.952-1.77,9.731-2.574,4.583-3.94,11.1-1.447,15.28" transform="translate(5.45 1.436)" fill="#00bce4"/>
            <path id="Trazado_22346-2" data-name="Trazado 22346" d="M263.2,49.023a5.094,5.094,0,0,0-6.951.507l-.733.757-.734-.757a5.094,5.094,0,0,0-6.951-.507,5.349,5.349,0,0,0-.369,7.745l7.209,7.443a1.167,1.167,0,0,0,1.687,0l7.208-7.443a5.345,5.345,0,0,0-.364-7.745" transform="translate(5.219 1.016)" fill="#8dc63f"/>
            <path id="Trazado_22347" data-name="Trazado 22347" d="M21.187.468v5.09H13.878v26.32H7.222V5.558H0V.468Z" transform="translate(0 0.01)" fill="#0f5ba3"/>
            <path id="Trazado_22348" data-name="Trazado 22348" d="M26.5,9.712v15.1q0,3.393,2.044,3.392a1.945,1.945,0,0,0,1.74-.957,4.641,4.641,0,0,0,.609-2.523V9.712h6.134V27.157q.043,3.784.087,4.524h-5.96l-.087-2.35a6.092,6.092,0,0,1-2.2,2.088,6.429,6.429,0,0,1-3.024.654,5.107,5.107,0,0,1-4.09-1.567,6.183,6.183,0,0,1-1.348-4.177V9.712Z" transform="translate(0.433 0.206)" fill="#0f5ba3"/>
            <path id="Trazado_22349" data-name="Trazado 22349" d="M70.918,10.4H64.479V9.788a6.97,6.97,0,0,0-.8-3.829,2.648,2.648,0,0,0-2.327-1.175,3.054,3.054,0,0,0-2.916,2.154q-.913,2.154-.913,9.723,0,7.18.957,9.006a3.106,3.106,0,0,0,2.915,1.827,2.825,2.825,0,0,0,2.5-1.37,8.461,8.461,0,0,0,.892-4.459v-.348h6.483v.913q0,4.873-2.327,7.44t-7.462,2.566a11,11,0,0,1-6.416-1.587,8.514,8.514,0,0,1-3.176-4.461q-.936-2.871-.935-9.962,0-7.219.914-10.049a8.819,8.819,0,0,1,3.176-4.5Q57.3,0,61.782,0q4.523,0,6.83,2.283T70.918,9.44Z" transform="translate(1.081 0)" fill="#0f5ba3"/>
            <path id="Trazado_22350" data-name="Trazado 22350" d="M76.253,29.735q-2.045-2.523-2.044-8.962,0-6.83,2.11-9.223T83.04,9.158q4.871,0,6.982,2.241t2.11,8.853q0,7.439-2.283,9.723t-7.157,2.284q-4.395,0-6.439-2.523m9.7-8.005V19.164a16.433,16.433,0,0,0-.479-4.633,2.112,2.112,0,0,0-2.262-1.5,2.319,2.319,0,0,0-2.2,1.218,11.084,11.084,0,0,0-.675,4.742v1.654a23.587,23.587,0,0,0,.5,6,2.155,2.155,0,0,0,2.283,1.61,2.206,2.206,0,0,0,2.241-1.48,15.16,15.16,0,0,0,.587-5.047" transform="translate(1.574 0.194)" fill="#0f5ba3"/>
            <path id="Trazado_22351" data-name="Trazado 22351" d="M112.9,31.69h-6.134V16.639a5.015,5.015,0,0,0-.543-2.806,1.918,1.918,0,0,0-1.632-.718,2.022,2.022,0,0,0-1.848.935,4.207,4.207,0,0,0-.587,2.283V31.69H96.02V9.721h6.048l.087,2.219a5.7,5.7,0,0,1,5.09-2.654,5.949,5.949,0,0,1,4.133,1.37,5.2,5.2,0,0,1,1.523,4.068Z" transform="translate(2.037 0.197)" fill="#0f5ba3"/>
            <path id="Trazado_22352" data-name="Trazado 22352" d="M126.724,4.257a2.153,2.153,0,0,1-.435-.044,2.427,2.427,0,0,0-1.98.762A5.046,5.046,0,0,0,123.679,8V9.913h3v3.742h-3V31.882h-6V13.654h-2.741V9.913h2.741v-3.7a6.305,6.305,0,0,1,1.392-4.524q1.392-1.435,5.7-1.436l2.044.087Zm7.526,1.174h-6.134V.473h6.134Zm0,26.45h-6.134V9.913h6.134Z" transform="translate(2.438 0.005)" fill="#0f5ba3"/>
            <path id="Trazado_22353" data-name="Trazado 22353" d="M155.251,26.862q.041,1.872.13,2.827t.219,2h-5.7q-.089-1.346-.3-2.915a6.215,6.215,0,0,1-5.655,3.307,5.457,5.457,0,0,1-4.394-1.784,7.538,7.538,0,0,1-1.523-5.046q0-3.742,1.979-5.569t7.678-1.827h1.61V15.377a3.254,3.254,0,0,0-.543-2.088,2.418,2.418,0,0,0-1.936-.652,2.222,2.222,0,0,0-1.871.782,4.419,4.419,0,0,0-.609,2.653h-5.786v-.3q0-3.525,2.2-5a11.226,11.226,0,0,1,6.287-1.48q4.438,0,6.331,1.719t1.892,5.285Zm-5.786-4.046v-1.74h-.479a8.8,8.8,0,0,0-3.675.61q-1.284.608-1.284,3.088a4.751,4.751,0,0,0,.609,2.915,2.083,2.083,0,0,0,1.653.7A2.625,2.625,0,0,0,148.66,27.1a8.46,8.46,0,0,0,.8-4.285" transform="translate(2.928 0.197)" fill="#0f5ba3"/>
            <path id="Trazado_22354" data-name="Trazado 22354" d="M176.8,31.69h-6.133V16.639a5,5,0,0,0-.544-2.806,1.918,1.918,0,0,0-1.632-.718,2.021,2.021,0,0,0-1.847.935,4.207,4.207,0,0,0-.587,2.283V31.69H159.92V9.721h6.047l.088,2.219a5.7,5.7,0,0,1,5.089-2.654,5.952,5.952,0,0,1,4.134,1.37,5.2,5.2,0,0,1,1.522,4.068Z" transform="translate(3.393 0.197)" fill="#0f5ba3"/>
            <path id="Trazado_22355" data-name="Trazado 22355" d="M194.6,9.712v4.133l-8.571,13.877h8.7v3.959H179.813V27.2l8.4-13.573h-8.091V9.712Z" transform="translate(3.815 0.206)" fill="#0f5ba3"/>
            <path id="Trazado_22356" data-name="Trazado 22356" d="M214.422,26.862q.041,1.872.13,2.827t.219,2h-5.7q-.089-1.346-.3-2.915a6.215,6.215,0,0,1-5.655,3.307,5.456,5.456,0,0,1-4.394-1.784,7.544,7.544,0,0,1-1.523-5.046q0-3.742,1.979-5.569t7.678-1.827h1.609V15.377a3.254,3.254,0,0,0-.543-2.088,2.418,2.418,0,0,0-1.936-.652,2.223,2.223,0,0,0-1.871.782,4.419,4.419,0,0,0-.609,2.653h-5.785v-.3q0-3.525,2.2-5a11.223,11.223,0,0,1,6.286-1.48q4.438,0,6.331,1.719t1.892,5.285Zm-5.786-4.046v-1.74h-.479a8.8,8.8,0,0,0-3.675.61q-1.284.608-1.284,3.088a4.75,4.75,0,0,0,.609,2.915,2.083,2.083,0,0,0,1.653.7,2.625,2.625,0,0,0,2.371-1.284,8.46,8.46,0,0,0,.8-4.285" transform="translate(4.183 0.197)" fill="#0f5ba3"/>
            <path id="Trazado_22357-2" data-name="Trazado 22357" d="M263.194,49.269a5.094,5.094,0,0,0-6.951.507l-.733.757-.734-.757a5.094,5.094,0,0,0-6.951-.507,5.349,5.349,0,0,0-.369,7.745l7.209,7.443a1.167,1.167,0,0,0,1.687,0l7.208-7.443a5.345,5.345,0,0,0-.365-7.745" transform="translate(5.218 1.021)" fill="#8dc63f"/>
            <path id="Trazado_22358" data-name="Trazado 22358" d="M282.3,111.354a11.893,11.893,0,1,0,11.966,11.82,11.892,11.892,0,0,0-11.966-11.82" transform="translate(5.738 2.362)" fill="#f5b92b"/>
            <path id="Trazado_22359" data-name="Trazado 22359" d="M282.268,113.217a9.99,9.99,0,1,0,10.051,9.928,9.989,9.989,0,0,0-10.051-9.928" transform="translate(5.778 2.402)" fill="#fddb32"/>
            <path id="Trazado_22360" data-name="Trazado 22360" d="M294.259,123.269c0-.032,0-.063,0-.095a11.893,11.893,0,0,0-23.785.145c0,.033,0,.063,0,.1Z" transform="translate(5.738 2.362)" fill="#fddb32"/>
            <path id="Trazado_22361" data-name="Trazado 22361" d="M282.26,113.776a9.419,9.419,0,1,0,9.477,9.361,9.419,9.419,0,0,0-9.477-9.361" transform="translate(5.79 2.414)" fill="#e8a427"/>
            <path id="Trazado_22362" data-name="Trazado 22362" d="M276.207,121.571a.414.414,0,0,1,.339-.287l3.712-.511,1.554-3.409a.416.416,0,0,1,.373-.243h0a.413.413,0,0,1,.376.235l1.632,3.372,3.723.425a.416.416,0,0,1,.24.712l-2.7,2.594.746,3.671a.414.414,0,0,1-.159.416.415.415,0,0,1-.443.033l-3.3-1.769-3.262,1.844a.415.415,0,0,1-.2.054.423.423,0,0,1-.243-.077.414.414,0,0,1-.167-.412l.662-3.688L276.323,122a.416.416,0,0,1-.115-.43" transform="translate(5.859 2.485)" fill="#fddb32"/>
            <g id="Grupo_11368" data-name="Grupo 11368" transform="translate(276.214 113.716)" style="mix-blend-mode: color;isolation: isolate">
              <g id="Grupo_11367" data-name="Grupo 11367">
                <g id="Grupo_11366" data-name="Grupo 11366" clip-path="url(#clip-path-3)">
                  <path id="Trazado_22363" data-name="Trazado 22363" d="M294.261,123.174a11.893,11.893,0,1,1-11.966-11.82,11.894,11.894,0,0,1,11.966,11.82" transform="translate(-270.476 -111.354)" fill="#e0c04f"/>
                </g>
              </g>
            </g>
            <path id="Trazado_22364" data-name="Trazado 22364" d="M254.619,111.355a11.893,11.893,0,1,0,11.68,12.1,11.892,11.892,0,0,0-11.68-12.1" transform="translate(5.145 2.362)" fill="#f5b92b"/>
            <path id="Trazado_22365" data-name="Trazado 22365" d="M254.545,113.218a9.99,9.99,0,1,0,9.811,10.166,9.99,9.99,0,0,0-9.811-10.166" transform="translate(5.184 2.402)" fill="#fddb32"/>
            <path id="Trazado_22366" data-name="Trazado 22366" d="M266.293,123.553c0-.032,0-.063,0-.095a11.893,11.893,0,0,0-23.782-.424c0,.032,0,.063,0,.095Z" transform="translate(5.145 2.362)" fill="#fddb32"/>
            <path id="Trazado_22367" data-name="Trazado 22367" d="M254.523,113.777a9.419,9.419,0,1,0,9.25,9.585,9.419,9.419,0,0,0-9.25-9.585" transform="translate(5.196 2.414)" fill="#e8a427"/>
            <path id="Trazado_22368" data-name="Trazado 22368" d="M248.283,121.427a.414.414,0,0,1,.346-.279l3.723-.422,1.635-3.371a.416.416,0,0,1,.379-.233h0a.413.413,0,0,1,.37.243l1.551,3.41,3.711.514a.415.415,0,0,1,.224.717l-2.764,2.53.658,3.689a.414.414,0,0,1-.613.433l-3.26-1.847-3.3,1.766a.417.417,0,0,1-.444-.033.417.417,0,0,1-.158-.416l.751-3.671-2.7-2.6a.415.415,0,0,1-.105-.432" transform="translate(5.267 2.485)" fill="#fddb32"/>
            <g id="Grupo_11371" data-name="Grupo 11371" transform="translate(247.659 113.716)" style="mix-blend-mode: color;isolation: isolate">
              <g id="Grupo_11370" data-name="Grupo 11370">
                <g id="Grupo_11369" data-name="Grupo 11369" clip-path="url(#clip-path-3)">
                  <path id="Trazado_22369" data-name="Trazado 22369" d="M266.3,123.458a11.893,11.893,0,1,1-11.68-12.1,11.893,11.893,0,0,1,11.68,12.1" transform="translate(-242.514 -111.353)" fill="#dadada"/>
                </g>
              </g>
            </g>
            <path id="Trazado_22370" data-name="Trazado 22370" d="M226.523,111.354a11.893,11.893,0,1,0,11.815,11.97,11.892,11.892,0,0,0-11.815-11.97" transform="translate(4.552 2.362)" fill="#f5b92b"/>
            <path id="Trazado_22371" data-name="Trazado 22371" d="M226.471,113.217a9.99,9.99,0,1,0,9.924,10.055,9.99,9.99,0,0,0-9.924-10.055" transform="translate(4.591 2.402)" fill="#fddb32"/>
            <path id="Trazado_22372" data-name="Trazado 22372" d="M238.334,123.419c0-.032,0-.063,0-.095a11.893,11.893,0,0,0-23.785-.155c0,.032,0,.063,0,.095Z" transform="translate(4.552 2.362)" fill="#fddb32"/>
            <path id="Trazado_22373" data-name="Trazado 22373" d="M226.455,113.776a9.419,9.419,0,1,0,9.357,9.48,9.418,9.418,0,0,0-9.357-9.48" transform="translate(4.603 2.414)" fill="#e8a427"/>
            <path id="Trazado_22374" data-name="Trazado 22374" d="M220.3,121.495a.414.414,0,0,1,.343-.283l3.718-.463,1.6-3.389a.412.412,0,0,1,.376-.238h0a.416.416,0,0,1,.373.239l1.589,3.392,3.717.472a.414.414,0,0,1,.231.714l-2.736,2.56.7,3.68a.415.415,0,0,1-.164.414.409.409,0,0,1-.246.079.417.417,0,0,1-.2-.051l-3.279-1.811-3.284,1.8a.424.424,0,0,1-.2.052.415.415,0,0,1-.4-.493l.709-3.679-2.73-2.566a.414.414,0,0,1-.11-.431" transform="translate(4.673 2.485)" fill="#fddb32"/>
            <g id="Grupo_11374" data-name="Grupo 11374" transform="translate(219.104 113.716)" style="mix-blend-mode: color;isolation: isolate">
              <g id="Grupo_11373" data-name="Grupo 11373">
                <g id="Grupo_11372" data-name="Grupo 11372" clip-path="url(#clip-path-5)">
                  <path id="Trazado_22375" data-name="Trazado 22375" d="M238.337,123.324a11.893,11.893,0,1,1-11.815-11.97,11.894,11.894,0,0,1,11.815,11.97" transform="translate(-214.552 -111.353)" fill="#d99c59"/>
                </g>
              </g>
            </g>
          </g>
        </g>
      </g>
    </g>
  </g>
</svg>
