<svg xmlns="http://www.w3.org/2000/svg" width="79.966" height="80" viewBox="0 0 79.966 80">
  <g id="logoADT" transform="translate(-26.874 -12.858)">
    <path id="octagono" d="M110.84,25.169,87.4,1.988l-33.432-.13L30.99,24.962l-.116,32.777L53.993,81.721l33.6.136,23.124-24.009Z" transform="translate(-4 11)" fill="#0059a0"/>
    <path id="blanco" d="M86.625,3.294,54.133,3.18l-21.821,22.3-.136,31.214,22.2,23.1,32.225.12,22.178-23.05.131-31.376Zm21.265,53.2L86.213,79.019,54.773,78.9,33.067,56.34l.128-30.51L54.488,4.056l31.748.13,21.782,21.673ZM43.843,61.3l53.21.209.156-40L44,21.3Zm.911-7.973,5.732.029,1.523-3.213,9.333.042,1.491,3.111,6.307.05L57.1,28.712,44.753,52.846,44.89,22.2l51.423.211-.019,6.372-18.417-.066-.016,5.348,7.274.033-.058,19.428,5.4.035L90.554,34.1l5.72.031-.107,26.5-51.439-.2Zm9.7-8.034,2.207-4.628,2.25,4.654Zm22.483-10.3.009-5.131A7.632,7.632,0,0,0,74.3,28.79a11.925,11.925,0,0,0-2.447-.317L64.8,28.446l-.055,13.585,5.522,11.353,3.525.007s9.757-1.715,9.793-12.238c.024-4.226-1.392-6.139-1.392-6.139ZM74.617,47.327a8.942,8.942,0,0,1-4.582.813l.048-14.272a12.4,12.4,0,0,1,4.217.781,6.631,6.631,0,0,1,3.976,6.4,6.845,6.845,0,0,1-3.659,6.274M93.383,35.362a1.891,1.891,0,1,0,1.879,1.891,1.895,1.895,0,0,0-1.879-1.891m-.022,3.418a1.527,1.527,0,1,1,1.516-1.517,1.526,1.526,0,0,1-1.516,1.517m.858-2c0-.424-.262-.6-.733-.6l-.847-.035-.011,2.178h.322l.007-.937h.39l.539.936h.371l-.595-.949a.563.563,0,0,0,.555-.591m-1.26.332.007-.683h.465c.206,0,.428.053.429.335,0,.322-.223.332-.511.348Z" transform="translate(-3.688 11.317)" fill="#fff"/>
  </g>
</svg>
