<svg id="logoPremia" xmlns="http://www.w3.org/2000/svg" xmlns:xlink="http://www.w3.org/1999/xlink" width="174.544" height="80" viewBox="0 0 174.544 80">
  <defs>
    <clipPath id="clip-path">
      <rect id="Rectángulo_1750" data-name="Rectángulo 1750" width="174.544" height="80" fill="none"/>
    </clipPath>
    <clipPath id="clip-path-3">
      <rect id="Rectángulo_1746" data-name="Rectángulo 1746" width="13.838" height="13.839" fill="none"/>
    </clipPath>
    <clipPath id="clip-path-5">
      <rect id="Rectángulo_1748" data-name="Rectángulo 1748" width="13.839" height="13.839" fill="none"/>
    </clipPath>
  </defs>
  <g id="Grupo_11377" data-name="Grupo 11377" clip-path="url(#clip-path)">
    <g id="Grupo_11376" data-name="Grupo 11376">
      <g id="Grupo_11375" data-name="Grupo 11375" clip-path="url(#clip-path)">
        <path id="Trazado_22340" data-name="Trazado 22340" d="M61.809,73.155c-.515,1.357-.983,3.041-.655,3.883-5.24.7-6.55-2.339-4.819-6.457,1.03-2.433,2.573-6.129,4.024-9.545,1.123-2.807,2.339-5.849,3.51-8.562,1.4-3.276,4.211-7.58,9.077-5.662-.842.608-1.919,3.7-3.182,6.551-1.03,2.339-2.058,4.913-3.088,7.58,6.831.936,14.131-4.585,13.382-11.276-.281-2.948-2.34-5.521-7.861-5.615-5.24-.094-10.95,2.573-13.663,6.738-4.024,6.129-.515,10.06-.515,10.06-7.58,3.276-9.545-4.071-5.334-10.855,3.182-5.053,10.247-9.826,19.839-9.732a17.206,17.206,0,0,1,7.954,1.872c8.282,4.586,5.989,15.207-.7,19.746a18.216,18.216,0,0,1-14.364,2.246c-1.17,2.995-2.433,6.035-3.6,9.03" transform="translate(-20.499 -16.34)" fill="#fff"/>
        <path id="Trazado_22341" data-name="Trazado 22341" d="M116.756,75.849c.608-1.123-.235-1.263-1.077-.7-1.31.889-6.036,6.691-7.393,9.124a9.387,9.387,0,0,0-1.4,4.258c-2.106.047-4.117-.7-4.912-2.948-.8-2.153.515-5.615,1.824-8.189.655-1.169,1.45-2.573,2.153-4.024.468-1.17,1.17-3.463.889-4.726,1.45-.374,3.6-.234,4.772.983.843.843.8,2.34.141,3.977-.468,1.076-1.4,2.62-1.872,3.6-.327.749-.094.468.14.187,3.416-4.071,7.112-7.814,9.966-8.843a3.533,3.533,0,0,1,3.416.234c1.637,1.4,2.058,2.434,1.31,4.071-.982,2.152-2.386,4.678-3.462,7.065-4.211.889-5.8-1.685-4.491-4.071" transform="translate(-41.286 -27.689)" fill="#fff"/>
        <path id="Trazado_22342" data-name="Trazado 22342" d="M153.04,67.42c2.667-.14,5.942.609,6.925,3.229,1.263,3.462-1.4,7.205-5.1,8.843a17.72,17.72,0,0,1-8.422,1.31,3.486,3.486,0,0,0,.187,2.807c1.264,2.292,4.819,1.684,6.972.889a9.647,9.647,0,0,0,2.339-1.311c.374-.327.889,0,.609.655a4.342,4.342,0,0,1-.655,1.4,8.523,8.523,0,0,1-2.62,2.246,11.039,11.039,0,0,1-6.317,1.31,9.224,9.224,0,0,1-4.678-1.731,6.254,6.254,0,0,1-2.34-5.24c-.047-5.989,5.9-13.991,13.1-14.412m1.4,2.948c-.8-.281-2.058-.047-3.743,1.965a19.2,19.2,0,0,0-3.6,6.13c7.393-.889,9.078-7.486,7.346-8.095" transform="translate(-56.793 -27.356)" fill="#fff"/>
        <path id="Trazado_22343" data-name="Trazado 22343" d="M182.446,78.2c.234-.281.7-.8.842-.936,2.807-3.228,7.112-7.766,9.873-8.7a3.36,3.36,0,0,1,3.275.234c1.637,1.4,1.965,2.293,1.217,3.93-.749,1.684-1.825,3.6-2.761,5.428-.421.889-.515,1.965.327.8,2.854-3.836,8.329-9.311,11.417-10.388a3.382,3.382,0,0,1,3.276.234c1.637,1.4,2.059,2.433,1.31,4.117-.983,2.153-2.292,4.679-3.369,7.019-1.217,2.573-1.731,5.942-.561,8.375-2.667.608-5.334.327-6.457-2.62-1.029-2.808,1.077-7.205,2.433-9.779.468-1.169-.233-1.264-1.029-.7a16.584,16.584,0,0,0-2.807,2.527,47.481,47.481,0,0,0-4.4,5.615,14.064,14.064,0,0,0-2.106,4.4c-.188,1.03-1.263.749-2.106.7a4.441,4.441,0,0,1-3.416-2.76c-1.03-2.808,1.123-7.205,2.527-9.779.468-1.169-.281-1.264-1.123-.7a28.419,28.419,0,0,0-2.76,2.573c-2.808,2.854-6.691,7.767-6.785,10.714v.048c-2.058.047-4.07-.655-4.912-2.854-.8-2.246.561-5.662,1.918-8.235.608-1.17,1.451-2.573,2.059-4.024.468-1.216,1.169-3.509.889-4.773,1.45-.374,3.743-.28,4.819.936,1.076,1.263.936,2.9-.047,4.773-.421.888-1.544,2.9-1.825,3.555-.374.749-.093.655.281.281" transform="translate(-70.664 -27.702)" fill="#fff"/>
        <path id="Trazado_22344" data-name="Trazado 22344" d="M243.911,88.424c-2.621.468-5.334.094-6.41-2.76-.983-2.76,1.076-6.878,2.479-9.779.561-1.17,1.5-3.042,1.731-3.6.515-1.17,1.17-2.854.842-4.024a4.736,4.736,0,0,1,4.492.983,4.22,4.22,0,0,1,.421,4.725c-1.45,2.948-2.339,4.773-2.947,6.13-1.5,3.182-1.545,6.738-.608,8.328" transform="translate(-96.284 -27.632)" fill="#fff"/>
        <path id="Trazado_22345" data-name="Trazado 22345" d="M276.676,87.983a8.712,8.712,0,0,1-3.649.093c-1.544-.374-2.854-1.5-2.714-3.182a11.362,11.362,0,0,1-8.8,3.323,5.024,5.024,0,0,1-4.4-3.7c-.889-3.743.655-8.656,4.3-12.727,3.135-3.51,8.235-4.959,11.183-3.6.515.234,1.076.7.982,1.311-.047.187-.374.187-.889.28a11.494,11.494,0,0,0-5.8,4.165c-2.667,3.321-5.427,10.106-2.947,11.136,1.684.749,4.632-1.684,6.69-4.539,1.592-2.106,2.808-4.492,2.621-5.1,0-.047-1.5-.094-1.685-.983a2.4,2.4,0,0,1,1.5-2.386c2.386-1.45,4.632-.608,5.474,1.356.562,1.357.14,3.463-1.03,5.662-1.5,2.667-2.292,6.457-.842,8.89" transform="translate(-104.251 -27.471)" fill="#fff"/>
        <path id="Trazado_22346" data-name="Trazado 22346" d="M256,48.545a2.964,2.964,0,0,0-4.044.295l-.427.44-.427-.44a2.964,2.964,0,0,0-4.044-.295,3.112,3.112,0,0,0-.214,4.506l4.194,4.33a.679.679,0,0,0,.982,0l4.194-4.33A3.11,3.11,0,0,0,256,48.545" transform="translate(-99.83 -19.432)" fill="#8dc63f"/>
        <path id="Trazado_22347" data-name="Trazado 22347" d="M12.327.468V3.429H8.074V18.742H4.2V3.429H0V.468Z" transform="translate(0 -0.19)" fill="#fff"/>
        <path id="Trazado_22348" data-name="Trazado 22348" d="M23.95,9.712V18.5q0,1.974,1.189,1.974a1.132,1.132,0,0,0,1.012-.557,2.7,2.7,0,0,0,.354-1.468V9.712h3.569v10.15q.025,2.2.051,2.632H26.658l-.051-1.367a3.544,3.544,0,0,1-1.278,1.215,3.741,3.741,0,0,1-1.759.38,2.971,2.971,0,0,1-2.38-.911,3.6,3.6,0,0,1-.784-2.43V9.712Z" transform="translate(-8.282 -3.942)" fill="#fff"/>
        <path id="Trazado_22349" data-name="Trazado 22349" d="M62.567,6.049H58.821V5.695a4.055,4.055,0,0,0-.468-2.227A1.541,1.541,0,0,0,57,2.784a1.777,1.777,0,0,0-1.7,1.253q-.531,1.253-.531,5.657,0,4.177.557,5.24A1.807,1.807,0,0,0,57.024,16a1.644,1.644,0,0,0,1.456-.8A4.923,4.923,0,0,0,59,12.6v-.2H62.77v.531a6.234,6.234,0,0,1-1.354,4.328,5.6,5.6,0,0,1-4.341,1.493,6.4,6.4,0,0,1-3.733-.923,4.954,4.954,0,0,1-1.848-2.6,21.135,21.135,0,0,1-.544-5.8,21.74,21.74,0,0,1,.532-5.846A5.131,5.131,0,0,1,53.329.974,6.564,6.564,0,0,1,57.252,0a5.423,5.423,0,0,1,3.974,1.329,5.652,5.652,0,0,1,1.342,4.164Z" transform="translate(-20.677)" fill="#fff"/>
        <path id="Trazado_22350" data-name="Trazado 22350" d="M75.4,21.13q-1.19-1.468-1.19-5.214,0-3.974,1.228-5.366a4.962,4.962,0,0,1,3.911-1.392,5.385,5.385,0,0,1,4.062,1.3q1.227,1.3,1.228,5.151,0,4.328-1.329,5.657A5.686,5.686,0,0,1,79.145,22.6,4.539,4.539,0,0,1,75.4,21.13m5.644-4.658V14.98a9.561,9.561,0,0,0-.279-2.7,1.229,1.229,0,0,0-1.316-.873,1.349,1.349,0,0,0-1.278.709,6.448,6.448,0,0,0-.393,2.759v.963a13.724,13.724,0,0,0,.292,3.492,1.254,1.254,0,0,0,1.329.937,1.283,1.283,0,0,0,1.3-.861,8.82,8.82,0,0,0,.342-2.936" transform="translate(-30.117 -3.717)" fill="#fff"/>
        <path id="Trazado_22351" data-name="Trazado 22351" d="M105.841,22.321h-3.569V13.564a2.918,2.918,0,0,0-.316-1.633,1.116,1.116,0,0,0-.949-.418,1.176,1.176,0,0,0-1.075.544,2.448,2.448,0,0,0-.342,1.329v8.935H96.02V9.539h3.519l.05,1.291a3.318,3.318,0,0,1,2.961-1.544,3.461,3.461,0,0,1,2.4.8,3.023,3.023,0,0,1,.886,2.367Z" transform="translate(-38.969 -3.769)" fill="#fff"/>
        <path id="Trazado_22352" data-name="Trazado 22352" d="M121.794,2.583a1.253,1.253,0,0,1-.253-.026A1.412,1.412,0,0,0,120.388,3a2.936,2.936,0,0,0-.367,1.759V5.874h1.746V8.051h-1.746V18.656h-3.493V8.051h-1.595V5.874h1.595V3.722a3.668,3.668,0,0,1,.81-2.632q.81-.835,3.316-.835l1.19.051Zm4.379.683H122.6V.382h3.569Zm0,15.389H122.6V5.874h3.569Z" transform="translate(-46.645 -0.103)" fill="#fff"/>
        <path id="Trazado_22353" data-name="Trazado 22353" d="M148.046,19.512q.024,1.089.075,1.645t.127,1.165h-3.316q-.052-.783-.177-1.7a3.616,3.616,0,0,1-3.29,1.924,3.175,3.175,0,0,1-2.557-1.038,4.386,4.386,0,0,1-.886-2.936,4.2,4.2,0,0,1,1.151-3.24q1.151-1.063,4.467-1.063h.936V12.83a1.893,1.893,0,0,0-.316-1.215,1.407,1.407,0,0,0-1.127-.379,1.293,1.293,0,0,0-1.088.455,2.571,2.571,0,0,0-.354,1.544h-3.366v-.176a3.249,3.249,0,0,1,1.278-2.911,6.531,6.531,0,0,1,3.658-.861,5.434,5.434,0,0,1,3.683,1,3.956,3.956,0,0,1,1.1,3.075Zm-3.366-2.354V16.146H144.4a5.122,5.122,0,0,0-2.138.355q-.747.354-.747,1.8a2.764,2.764,0,0,0,.354,1.7,1.212,1.212,0,0,0,.962.405,1.527,1.527,0,0,0,1.38-.747,4.922,4.922,0,0,0,.468-2.493" transform="translate(-56.016 -3.769)" fill="#fff"/>
        <path id="Trazado_22354" data-name="Trazado 22354" d="M169.74,22.321h-3.568V13.564a2.911,2.911,0,0,0-.317-1.633,1.116,1.116,0,0,0-.949-.418,1.176,1.176,0,0,0-1.075.544,2.448,2.448,0,0,0-.342,1.329v8.935H159.92V9.539h3.518l.051,1.291a3.317,3.317,0,0,1,2.961-1.544,3.463,3.463,0,0,1,2.405.8,3.023,3.023,0,0,1,.885,2.367Z" transform="translate(-64.903 -3.769)" fill="#fff"/>
        <path id="Trazado_22355" data-name="Trazado 22355" d="M188.419,9.712v2.4l-4.987,8.074H188.5v2.3h-8.682V19.887l4.885-7.9H179.99V9.712Z" transform="translate(-72.976 -3.942)" fill="#fff"/>
        <path id="Trazado_22356" data-name="Trazado 22356" d="M207.217,19.512q.024,1.089.075,1.645t.127,1.165H204.1q-.052-.783-.177-1.7a3.616,3.616,0,0,1-3.29,1.924,3.175,3.175,0,0,1-2.557-1.038,4.389,4.389,0,0,1-.886-2.936,4.2,4.2,0,0,1,1.151-3.24q1.151-1.063,4.467-1.063h.936V12.83a1.894,1.894,0,0,0-.316-1.215,1.407,1.407,0,0,0-1.127-.379,1.293,1.293,0,0,0-1.088.455,2.571,2.571,0,0,0-.354,1.544H197.5v-.176a3.248,3.248,0,0,1,1.278-2.911,6.529,6.529,0,0,1,3.657-.861,5.434,5.434,0,0,1,3.683,1,3.955,3.955,0,0,1,1.1,3.075Zm-3.366-2.354V16.146h-.279a5.122,5.122,0,0,0-2.138.355q-.747.354-.747,1.8a2.764,2.764,0,0,0,.354,1.7A1.212,1.212,0,0,0,202,20.4a1.527,1.527,0,0,0,1.38-.747,4.923,4.923,0,0,0,.468-2.493" transform="translate(-80.03 -3.769)" fill="#fff"/>
        <path id="Trazado_22357" data-name="Trazado 22357" d="M255.992,48.791a2.964,2.964,0,0,0-4.044.295l-.427.44-.427-.44a2.964,2.964,0,0,0-4.044-.295,3.112,3.112,0,0,0-.214,4.506l4.194,4.33a.679.679,0,0,0,.982,0L256.2,53.3a3.11,3.11,0,0,0-.212-4.506" transform="translate(-99.826 -19.532)" fill="#8dc63f"/>
        <path id="Trazado_22358" data-name="Trazado 22358" d="M277.353,111.354a6.919,6.919,0,1,0,6.962,6.877,6.919,6.919,0,0,0-6.962-6.877" transform="translate(-109.771 -45.192)" fill="#f5b92b"/>
        <path id="Trazado_22359" data-name="Trazado 22359" d="M278.116,113.217a5.812,5.812,0,1,0,5.848,5.776,5.812,5.812,0,0,0-5.848-5.776" transform="translate(-110.528 -45.948)" fill="#fddb32"/>
        <path id="Trazado_22360" data-name="Trazado 22360" d="M284.313,118.286c0-.018,0-.037,0-.055a6.919,6.919,0,0,0-13.838.084c0,.019,0,.037,0,.056Z" transform="translate(-109.771 -45.192)" fill="#fddb32"/>
        <path id="Trazado_22361" data-name="Trazado 22361" d="M278.345,113.776a5.48,5.48,0,1,0,5.514,5.447,5.48,5.48,0,0,0-5.514-5.447" transform="translate(-110.754 -46.175)" fill="#e8a427"/>
        <path id="Trazado_22362" data-name="Trazado 22362" d="M276.2,119.711a.241.241,0,0,1,.2-.167l2.16-.3.9-1.983a.242.242,0,0,1,.217-.141h0a.24.24,0,0,1,.219.137l.949,1.962,2.166.247a.242.242,0,0,1,.14.414l-1.573,1.509.434,2.136a.241.241,0,0,1-.093.242.238.238,0,0,1-.143.048.235.235,0,0,1-.115-.029l-1.921-1.029-1.9,1.073a.242.242,0,0,1-.117.031.246.246,0,0,1-.141-.045.241.241,0,0,1-.1-.239l.385-2.145-1.607-1.473a.242.242,0,0,1-.067-.25" transform="translate(-112.09 -47.533)" fill="#fddb32"/>
        <g id="Grupo_11368" data-name="Grupo 11368" transform="translate(160.705 66.161)" style="mix-blend-mode: color;isolation: isolate">
          <g id="Grupo_11367" data-name="Grupo 11367">
            <g id="Grupo_11366" data-name="Grupo 11366" clip-path="url(#clip-path-3)">
              <path id="Trazado_22363" data-name="Trazado 22363" d="M284.314,118.231a6.919,6.919,0,1,1-6.962-6.877,6.92,6.92,0,0,1,6.962,6.877" transform="translate(-270.476 -111.354)" fill="#e0c04f"/>
            </g>
          </g>
        </g>
        <path id="Trazado_22364" data-name="Trazado 22364" d="M249.557,111.354a6.919,6.919,0,1,0,6.8,7.041,6.919,6.919,0,0,0-6.8-7.041" transform="translate(-98.423 -45.192)" fill="#f5b92b"/>
        <path id="Trazado_22365" data-name="Trazado 22365" d="M250.293,113.217A5.812,5.812,0,1,0,256,119.132a5.812,5.812,0,0,0-5.708-5.915" transform="translate(-99.179 -45.948)" fill="#fddb32"/>
        <path id="Trazado_22366" data-name="Trazado 22366" d="M256.349,118.452c0-.018,0-.037,0-.055a6.919,6.919,0,0,0-13.837-.247c0,.018,0,.037,0,.055Z" transform="translate(-98.423 -45.193)" fill="#fddb32"/>
        <path id="Trazado_22367" data-name="Trazado 22367" d="M250.514,113.776a5.48,5.48,0,1,0,5.382,5.577,5.48,5.48,0,0,0-5.382-5.577" transform="translate(-99.406 -46.175)" fill="#e8a427"/>
        <path id="Trazado_22368" data-name="Trazado 22368" d="M248.274,119.627a.241.241,0,0,1,.2-.162l2.166-.245.951-1.961a.242.242,0,0,1,.22-.135h0a.24.24,0,0,1,.215.141l.9,1.984,2.159.3a.242.242,0,0,1,.13.417l-1.608,1.472.383,2.146a.241.241,0,0,1-.357.252l-1.9-1.075-1.922,1.027a.241.241,0,0,1-.351-.261l.437-2.136-1.572-1.511a.241.241,0,0,1-.061-.251" transform="translate(-100.756 -47.534)" fill="#fddb32"/>
        <g id="Grupo_11371" data-name="Grupo 11371" transform="translate(144.091 66.161)" style="mix-blend-mode: color;isolation: isolate">
          <g id="Grupo_11370" data-name="Grupo 11370">
            <g id="Grupo_11369" data-name="Grupo 11369" clip-path="url(#clip-path-3)">
              <path id="Trazado_22369" data-name="Trazado 22369" d="M256.351,118.4a6.919,6.919,0,1,1-6.8-7.041,6.92,6.92,0,0,1,6.8,7.041" transform="translate(-242.514 -111.354)" fill="#dadada"/>
            </g>
          </g>
        </g>
        <path id="Trazado_22370" data-name="Trazado 22370" d="M221.517,111.354a6.919,6.919,0,1,0,6.874,6.964,6.919,6.919,0,0,0-6.874-6.964" transform="translate(-87.075 -45.192)" fill="#f5b92b"/>
        <path id="Trazado_22371" data-name="Trazado 22371" d="M222.266,113.217a5.812,5.812,0,1,0,5.774,5.85,5.812,5.812,0,0,0-5.774-5.85" transform="translate(-87.831 -45.948)" fill="#fddb32"/>
        <path id="Trazado_22372" data-name="Trazado 22372" d="M228.389,118.373c0-.018,0-.037,0-.055a6.919,6.919,0,0,0-13.838-.09c0,.018,0,.037,0,.055Z" transform="translate(-87.075 -45.192)" fill="#fddb32"/>
        <path id="Trazado_22373" data-name="Trazado 22373" d="M222.49,113.776a5.48,5.48,0,1,0,5.444,5.516,5.48,5.48,0,0,0-5.444-5.516" transform="translate(-88.058 -46.175)" fill="#e8a427"/>
        <path id="Trazado_22374" data-name="Trazado 22374" d="M220.295,119.666a.241.241,0,0,1,.2-.165l2.163-.269.929-1.972a.24.24,0,0,1,.219-.138h0a.242.242,0,0,1,.217.139l.924,1.974,2.163.275a.241.241,0,0,1,.134.415l-1.592,1.49.408,2.141a.241.241,0,0,1-.1.241.238.238,0,0,1-.143.046.243.243,0,0,1-.115-.03l-1.908-1.053-1.911,1.049a.246.246,0,0,1-.118.03.242.242,0,0,1-.235-.287l.412-2.141-1.588-1.493a.241.241,0,0,1-.064-.251" transform="translate(-89.401 -47.533)" fill="#fddb32"/>
        <g id="Grupo_11374" data-name="Grupo 11374" transform="translate(127.477 66.161)" style="mix-blend-mode: color;isolation: isolate">
          <g id="Grupo_11373" data-name="Grupo 11373">
            <g id="Grupo_11372" data-name="Grupo 11372" clip-path="url(#clip-path-5)">
              <path id="Trazado_22375" data-name="Trazado 22375" d="M228.39,118.318a6.919,6.919,0,1,1-6.874-6.964,6.92,6.92,0,0,1,6.874,6.964" transform="translate(-214.552 -111.354)" fill="#d99c59"/>
            </g>
          </g>
        </g>
      </g>
    </g>
  </g>
</svg>
