<svg xmlns="http://www.w3.org/2000/svg" width="64.519" height="64.546" viewBox="0 0 64.519 64.546">
  <g id="logoADT" transform="translate(-26.874 -12.858)">
    <path id="octagono" d="M95.393,20.666,76.482,1.963,49.508,1.858,30.968,20.5l-.094,26.445,18.653,19.35,27.108.11L95.292,47.033Z" transform="translate(-4 11)" fill="#0059a0"/>
    <path id="blanco" d="M76.107,3.272,49.891,3.18,32.285,21.17l-.11,25.184L50.086,64.992l26,.1,17.894-18.6.106-25.315Zm17.157,42.92L75.774,64.369l-25.366-.1L32.9,46.071,33,21.455,50.178,3.887l25.615.105L93.367,21.478Zm-51.675,3.88,42.931.169.126-32.269L41.719,17.8Zm.735-6.433,4.625.023,1.229-2.592,7.53.034,1.2,2.51,5.089.04L52.284,23.78,42.323,43.252l.111-24.729,41.489.17-.015,5.141-14.859-.053L69.036,28.1l5.869.027L74.858,43.8l4.357.028.062-15.695,4.615.025-.086,21.377-41.5-.164Zm7.824-6.482,1.781-3.734,1.815,3.755Zm18.14-8.313.007-4.14a6.158,6.158,0,0,0-2.135-.861,9.622,9.622,0,0,0-1.974-.256l-5.69-.022-.044,10.961,4.455,9.16,2.844.006a9.836,9.836,0,0,0,7.9-9.874c.019-3.41-1.123-4.953-1.123-4.953ZM66.418,38.8a7.215,7.215,0,0,1-3.7.656L62.76,27.94a10.006,10.006,0,0,1,3.4.63,5.35,5.35,0,0,1,3.208,5.167A5.523,5.523,0,0,1,66.418,38.8m15.141-9.654a1.526,1.526,0,1,0,1.516,1.526,1.529,1.529,0,0,0-1.516-1.526M81.541,31.9a1.232,1.232,0,1,1,1.223-1.224A1.231,1.231,0,0,1,81.541,31.9m.692-1.61c0-.342-.211-.486-.591-.485l-.683-.028-.009,1.757h.26l.006-.756h.315l.435.755h.3l-.48-.766a.454.454,0,0,0,.448-.477m-1.017.268.006-.551H81.6c.166,0,.345.043.346.27,0,.26-.18.268-.412.281Z" transform="translate(-4 11)" fill="#fff"/>
  </g>
</svg>
